<svg width="973" height="986" viewBox="0 0 973 986" fill="none" xmlns="http://www.w3.org/2000/svg">
<path d="M342.298 289.425C386.155 225.504 441.612 131.728 505.883 114.114C570.609 96.71 643.939 155.922 710.952 220.468C778.628 284.77 838.87 354.441 855.602 433.713C872.544 512.532 845.313 601.197 796.816 666.825C748.075 731.789 678.067 773.715 609.364 792.582C540.207 811.239 472.809 807.046 401.642 803.863C330.685 800.227 256.169 797.147 180.554 765.494C104.695 733.177 28.1912 672.498 37.2298 610.091C45.815 547.475 139.734 483.585 202.838 435.166C266.152 386.293 298.442 353.345 342.298 289.425Z" fill="white"/>
</svg>
