<svg width="986" height="749" viewBox="0 0 312 234" fill="none" xmlns="http://www.w3.org/2000/svg">
<path d="M32.1165 190.3C66.4755 190.3 100.815 190.3 135.174 190.3C169.357 190.3 203.541 190.3 237.705 190.3C256.99 190.3 276.256 190.3 295.542 190.3C295.912 190.3 295.912 189.715 295.542 189.715C261.183 189.715 226.843 189.715 192.484 189.715C158.301 189.715 124.117 189.715 89.9535 189.715C70.668 189.715 51.402 189.715 32.1165 189.715C31.746 189.715 31.746 190.3 32.1165 190.3Z" fill="#E8E8E8"/>
<path d="M104.832 189.481C102.843 188.565 101.147 187.102 100.016 185.211C99.4891 184.333 99.0406 183.339 98.8066 182.344C98.5921 181.35 98.9821 180.336 100.152 180.492C100.913 180.589 101.517 181.096 102.063 181.564C102.18 181.408 102.297 181.252 102.414 181.096C101.147 180.277 100.152 179.146 99.5476 177.762C99.1381 176.806 98.1826 173.784 99.8206 173.491C100.016 173.452 100.074 173.218 99.9961 173.062C98.4361 169.845 98.0656 166.257 97.7341 162.747C97.5781 161.07 97.4221 159.042 98.7286 157.755C100.269 156.195 102.395 157.287 103.682 158.613C106.08 161.089 107.328 164.619 108.596 167.758C109.922 171.054 111.072 174.408 111.911 177.84C112.866 181.818 113.373 185.893 113.159 189.969C113.139 190.339 113.724 190.339 113.744 189.969C114.173 181.623 111.657 173.53 108.479 165.925C107.172 162.805 105.69 158.788 102.609 156.994C101.42 156.312 99.9766 156.117 98.8066 156.936C97.6171 157.774 97.1686 159.256 97.0906 160.641C96.9931 162.766 97.3636 165.009 97.6951 167.095C98.0266 169.26 98.5726 171.385 99.5281 173.355C99.5866 173.218 99.6451 173.062 99.7036 172.926C97.9876 173.238 98.3386 175.714 98.6701 176.904C99.1966 178.854 100.464 180.511 102.161 181.603C102.434 181.779 102.765 181.35 102.512 181.135C101.576 180.355 100.386 179.478 99.1186 180.043C97.7731 180.648 98.1436 182.208 98.5336 183.319C99.5476 186.264 101.771 188.682 104.579 189.969C104.871 190.144 105.183 189.637 104.832 189.481Z" fill="#E8E8E8"/>
<path d="M111.052 172.516C110.428 167.856 110.623 163.293 112.086 158.808C112.788 156.643 113.529 154.498 114.25 152.353C114.835 150.618 115.869 147.4 118.345 148.902C120.12 149.974 120.451 152.821 120.861 154.674C121.368 156.936 121.719 159.217 121.933 161.538C122.343 165.906 122.284 170.332 121.816 174.7C121.27 179.848 120.198 184.938 118.735 189.891C118.638 190.261 119.184 190.398 119.301 190.047C122.128 180.433 123.552 170.274 122.382 160.29C122.109 157.872 121.68 155.473 121.095 153.133C120.646 151.378 120.178 149.175 118.404 148.278C116.941 147.556 115.537 148.258 114.757 149.584C114.309 150.345 114.055 151.222 113.763 152.041C113.334 153.328 112.905 154.596 112.476 155.883C111.618 158.457 110.701 160.992 110.35 163.702C109.98 166.627 110.097 169.591 110.487 172.516C110.506 172.887 111.091 172.887 111.052 172.516Z" fill="#E8E8E8"/>
<path d="M99.333 157.384C104.949 167.388 109.376 178.269 110.39 189.813C110.429 190.183 111.014 190.183 110.975 189.813C109.941 178.171 105.515 167.212 99.84 157.092C99.6645 156.76 99.1575 157.053 99.333 157.384Z" fill="#E8E8E8"/>
<path d="M117.234 148.629C117.702 152.041 117.527 155.493 117.39 158.925C117.254 162.298 117.117 165.672 116.981 169.065C116.708 175.929 116.532 182.851 115.265 189.618C115.206 189.988 115.752 190.144 115.83 189.774C117.098 182.949 117.293 175.987 117.566 169.065C117.702 165.555 117.858 162.045 117.995 158.554C118.131 155.2 118.268 151.827 117.8 148.492C117.761 148.102 117.195 148.278 117.234 148.629Z" fill="#E8E8E8"/>
<path d="M111.638 158.476C114.114 161.811 115.889 165.594 116.825 169.63C116.903 170.001 117.468 169.845 117.39 169.474C116.435 165.379 114.66 161.538 112.145 158.164C111.93 157.872 111.423 158.164 111.638 158.476Z" fill="#E8E8E8"/>
<path d="M120.939 154.42C119.36 157.287 118.112 160.309 117.195 163.468C117.098 163.839 117.663 163.995 117.761 163.624C118.658 160.524 119.906 157.54 121.446 154.713C121.622 154.401 121.115 154.089 120.939 154.42Z" fill="#E8E8E8"/>
<path d="M99.7621 173.433C103.877 175.11 107.289 178.171 109.454 182.052C109.629 182.383 110.136 182.091 109.961 181.759C107.718 177.742 104.169 174.622 99.9182 172.887C99.5672 172.711 99.4306 173.277 99.7621 173.433Z" fill="#E8E8E8"/>
<path d="M105.261 160.27C104.91 163.605 105.066 166.939 105.69 170.235C105.768 170.605 106.334 170.449 106.256 170.079C105.651 166.842 105.515 163.546 105.846 160.27C105.885 159.9 105.3 159.9 105.261 160.27Z" fill="#E8E8E8"/>
<path d="M35.7046 189.598C35.2561 188.292 34.9246 186.927 34.7686 185.542C34.7101 184.957 34.6711 184.372 34.6711 183.768C34.6711 183.456 34.6126 183.007 34.6906 182.715C34.6906 182.598 34.7101 182.481 34.7101 182.364C35.0806 182.091 35.3926 182.13 35.6461 182.461C35.8216 182.617 36.1726 182.52 36.1531 182.247C36.0946 181.447 36.0946 180.648 36.1921 179.848C36.2506 179.458 36.3091 179.068 36.4066 178.698C36.4456 178.561 36.9136 177.235 36.9526 177.294C37.0891 177.489 37.4206 177.489 37.4791 177.216C38.3176 173.764 39.8191 170.547 41.6521 167.524C42.1201 166.744 42.6271 165.964 43.1341 165.204C43.6996 164.365 44.6356 163.039 45.4936 164.502C46.3711 165.984 46.6246 168.148 46.7026 169.845C46.8976 173.433 46.0786 177.001 44.9281 180.375C43.8166 183.67 42.4321 186.966 40.0531 189.559C39.7996 189.832 40.2091 190.242 40.4626 189.969C42.5296 187.726 43.8361 184.977 44.9086 182.149C46.0396 179.127 46.9561 175.987 47.2291 172.77C47.3656 171.21 47.3461 169.63 47.1121 168.07C46.9171 166.725 46.6246 165.009 45.7861 163.878C44.0506 161.577 42.0421 165.769 41.3206 166.939C39.3706 170.098 37.7911 173.452 36.9136 177.06C37.0891 177.04 37.2646 177.021 37.4401 176.982C36.9526 176.338 36.3481 176.982 36.1336 177.528C35.5291 178.99 35.4121 180.687 35.5486 182.227C35.7241 182.149 35.8801 182.091 36.0556 182.013C35.6851 181.681 35.0806 181.252 34.5541 181.506C34.0081 181.779 34.0861 182.52 34.0861 183.027C34.0276 185.308 34.3981 187.551 35.1391 189.715C35.2561 190.105 35.8216 189.949 35.7046 189.598Z" fill="#E8E8E8"/>
<path d="M44.7137 163.839C44.0507 168.441 42.9392 172.965 41.3597 177.333C39.8972 181.428 37.4402 185.386 36.8942 189.754C36.8552 190.125 37.4402 190.125 37.4792 189.754C37.7717 187.434 38.6687 185.289 39.6047 183.183C40.4822 181.194 41.3207 179.185 42.0422 177.138C43.5437 172.867 44.6162 168.46 45.2597 163.975C45.3182 163.624 44.7527 163.468 44.7137 163.839Z" fill="#E8E8E8"/>
<path d="M39.3315 170.8C39.546 173.901 39.858 176.982 40.2675 180.063C40.326 180.433 40.872 180.277 40.833 179.907C40.4235 176.884 40.1115 173.842 39.9165 170.8C39.897 170.43 39.312 170.41 39.3315 170.8Z" fill="#E8E8E8"/>
<path d="M42.978 174.291C44.538 172.75 45.8836 171.015 47.0146 169.143C47.2096 168.811 46.7026 168.519 46.5076 168.85C45.396 170.683 44.0895 172.36 42.5685 173.881C42.2955 174.135 42.705 174.544 42.978 174.291Z" fill="#E8E8E8"/>
<path d="M33.5401 189.306C32.1946 187.375 31.0636 185.308 30.2056 183.105C29.8156 182.11 29.4841 181.077 29.2111 180.043C29.0746 179.497 28.9381 178.951 28.8211 178.386C28.7431 178.054 28.2361 175.89 28.9381 176.026C29.1721 176.065 29.3476 175.89 29.2891 175.675C28.8016 172.984 28.4896 170.274 28.3921 167.544C28.3531 166.296 28.3336 165.009 28.6066 163.8C28.7431 163.215 28.9381 162.532 29.3281 162.045C30.2251 160.953 31.1611 161.85 31.7461 162.669C34.5541 166.608 36.3481 171.346 37.2061 176.085C37.2646 176.455 37.8301 176.299 37.7716 175.929C37.2256 172.984 36.3286 170.137 35.1001 167.427C34.4566 166.023 33.7351 164.677 32.9161 163.39C32.3701 162.532 31.6681 161.187 30.5566 160.953C28.1191 160.446 27.8071 164.697 27.7876 166.198C27.7486 169.435 28.1386 172.692 28.7236 175.87C28.8406 175.753 28.9576 175.636 29.0746 175.519C26.7346 175.11 28.6651 180.472 28.9576 181.389C29.8741 184.333 31.2586 187.122 33.0136 189.657C33.2476 189.91 33.7546 189.618 33.5401 189.306Z" fill="#E8E8E8"/>
<path d="M29.6987 161.557C31.8827 168.324 33.7352 175.207 35.2562 182.149C35.3342 182.52 35.8997 182.364 35.8217 181.993C34.3007 175.051 32.4482 168.168 30.2642 161.401C30.1472 161.05 29.5817 161.206 29.6987 161.557Z" fill="#E8E8E8"/>
<path d="M28.2751 170.605C30.5956 171.6 32.4872 173.296 33.6962 175.5C33.8717 175.831 34.3786 175.539 34.2031 175.207C32.9356 172.906 30.9856 171.132 28.5676 170.098C28.2166 169.962 27.9241 170.469 28.2751 170.605Z" fill="#E8E8E8"/>
<path d="M33.7155 165.633C33.2085 167.563 32.8965 169.513 32.7795 171.502C32.76 171.873 33.345 171.873 33.3645 171.502C33.462 169.572 33.774 167.661 34.281 165.789C34.3785 165.418 33.813 165.262 33.7155 165.633Z" fill="#E8E8E8"/>
<path d="M269.705 190.008C268.164 186.264 267.716 182.188 268.496 178.21C268.398 178.288 268.301 178.347 268.223 178.425C268.671 178.347 269.003 178.542 269.237 179.029C269.334 179.302 269.841 179.302 269.802 178.951C269.627 177.235 269.627 175.5 269.841 173.784C269.958 172.926 270.114 172.087 270.329 171.249C270.426 170.859 270.543 170.469 270.66 170.079C270.738 169.864 270.797 169.63 270.875 169.416C271.011 169.104 271.089 168.772 271.089 168.421C271.245 168.519 271.421 168.616 271.577 168.714C272.24 165.145 273.975 161.928 276.549 159.393C276.413 159.393 276.276 159.393 276.14 159.393C277.037 160.348 277.076 161.713 277.212 162.942C277.349 164.229 277.446 165.516 277.505 166.803C277.641 169.318 277.641 171.853 277.505 174.369C277.251 179.575 276.452 184.723 275.126 189.754C275.028 190.125 275.594 190.281 275.691 189.91C277.076 184.587 277.895 179.127 278.109 173.628C278.226 170.859 278.168 168.09 277.973 165.34C277.836 163.371 277.992 160.543 276.53 158.983C276.413 158.866 276.218 158.866 276.12 158.983C273.468 161.577 271.674 164.911 270.992 168.558C270.933 168.831 271.265 169.065 271.479 168.85C271.518 168.811 271.538 168.792 271.577 168.753C271.655 168.675 271.694 168.577 271.655 168.46C271.499 168.012 271.089 167.875 270.738 168.246C270.485 168.499 270.387 168.948 270.27 169.279C270.036 169.942 269.841 170.605 269.666 171.288C269.042 173.803 268.886 176.397 269.159 178.971C269.354 178.951 269.549 178.912 269.724 178.893C269.451 178.21 268.905 177.801 268.145 177.859C268.028 177.859 267.891 177.937 267.872 178.074C267.092 182.149 267.501 186.342 269.081 190.183C269.295 190.495 269.861 190.359 269.705 190.008Z" fill="#E8E8E8"/>
<path d="M278.402 174.271C278.909 170.8 280.293 167.485 282.477 164.716C283.004 164.053 283.55 163.449 284.154 162.864C284.544 162.493 285.422 161.44 286.026 162.318C286.26 162.649 286.241 163.195 286.241 163.585C286.221 165.477 285.968 167.407 285.675 169.299C284.564 176.611 281.951 183.651 278.031 189.93C277.836 190.242 278.343 190.554 278.538 190.222C282.107 184.47 284.603 178.113 285.89 171.463C286.202 169.864 286.436 168.265 286.592 166.647C286.728 165.34 287.138 163.566 286.65 162.298C285.617 159.568 282.555 163.663 281.814 164.619C279.689 167.388 278.324 170.664 277.836 174.115C277.797 174.486 278.363 174.642 278.402 174.271Z" fill="#E8E8E8"/>
<path d="M278.07 172.809C277.836 176.104 277.388 179.361 276.725 182.598C276.647 182.968 277.212 183.124 277.29 182.754C277.973 179.478 278.421 176.163 278.655 172.809C278.675 172.438 278.09 172.438 278.07 172.809Z" fill="#E8E8E8"/>
<path d="M285.597 161.811C282.282 171.112 279.084 180.433 275.984 189.813C275.867 190.164 276.432 190.32 276.549 189.969C279.63 180.589 282.828 171.268 286.163 161.967C286.28 161.616 285.714 161.46 285.597 161.811Z" fill="#E8E8E8"/>
<path d="M276.042 159.627C274.521 169.767 272.981 179.887 271.46 190.027C271.401 190.398 271.967 190.554 272.025 190.183C273.546 180.043 275.087 169.923 276.608 159.783C276.666 159.412 276.101 159.237 276.042 159.627Z" fill="#E8E8E8"/>
<path d="M270.933 168.304C271.577 172.243 272.22 176.163 272.864 180.102C272.922 180.472 273.488 180.316 273.429 179.946C272.786 176.007 272.142 172.087 271.499 168.148C271.44 167.778 270.875 167.934 270.933 168.304Z" fill="#E8E8E8"/>
<path d="M277.505 165.301C276.198 167.524 275.087 169.845 274.17 172.263C274.034 172.614 274.599 172.77 274.736 172.419C275.633 170.059 276.725 167.778 278.012 165.613C278.207 165.262 277.7 164.97 277.505 165.301Z" fill="#E8E8E8"/>
<path d="M279.962 167.602C279.962 170.956 279.962 174.33 279.962 177.684C279.962 178.054 280.547 178.054 280.547 177.684C280.547 174.33 280.547 170.956 280.547 167.602C280.547 167.232 279.962 167.232 279.962 167.602Z" fill="#E8E8E8"/>
<path d="M97.3636 197.788C98.6506 196.969 100.191 196.716 101.654 197.164C102.921 197.554 103.974 198.081 105.339 198.022C106.607 197.964 107.835 197.632 109.103 197.554C109.785 197.515 110.468 197.535 111.131 197.769C111.794 198.003 112.262 198.354 112.964 198.393C113.334 198.412 113.334 197.827 112.964 197.808C112.164 197.769 111.482 197.203 110.702 197.047C110.078 196.93 109.434 196.93 108.791 196.989C107.426 197.125 106.08 197.515 104.715 197.437C103.292 197.359 102.083 196.501 100.679 196.365C99.3916 196.248 98.1436 196.599 97.0711 197.281C96.7591 197.476 97.0516 197.983 97.3636 197.788Z" fill="#E8E8E8"/>
<path d="M146.933 196.131C148.883 196.072 150.833 195.994 152.763 195.936C153.719 195.897 154.713 195.799 155.669 195.877C156.468 195.936 157.073 196.384 157.814 196.56C158.418 196.696 159.003 196.599 159.608 196.462C160.641 196.228 161.655 196.014 162.728 195.975C164.58 195.877 166.433 196.092 168.266 196.306C168.636 196.345 168.636 195.76 168.266 195.721C166.433 195.507 164.58 195.292 162.728 195.39C161.85 195.429 160.973 195.546 160.115 195.741C159.081 195.975 158.282 196.15 157.287 195.702C155.844 195.078 154.323 195.292 152.802 195.351C150.852 195.409 148.902 195.487 146.972 195.546C146.562 195.565 146.562 196.15 146.933 196.131Z" fill="#E8E8E8"/>
<path d="M217.016 215.767C218.985 216.06 220.916 215.689 222.846 215.319C224.036 215.085 225.225 214.851 226.454 214.812C227.663 214.773 228.794 215.046 229.964 215.319C230.978 215.553 231.953 215.65 232.986 215.533C234.02 215.397 235.014 215.124 236.048 215.007C238.29 214.734 240.396 215.826 242.639 215.689C243.009 215.67 243.009 215.085 242.639 215.104C240.552 215.221 238.602 214.246 236.516 214.363C235.521 214.422 234.566 214.675 233.571 214.851C232.245 215.085 231.075 214.987 229.769 214.675C227.819 214.188 226.005 214.149 224.016 214.5C221.735 214.89 219.473 215.533 217.152 215.202C216.801 215.143 216.645 215.709 217.016 215.767Z" fill="#E8E8E8"/>
<path d="M271.07 196.833C274.97 195.526 279.201 196.755 283.218 196.209C284.349 196.053 285.5 195.858 286.65 195.955C287.606 196.033 288.503 196.404 289.439 196.501C290.414 196.579 291.369 196.306 292.325 196.209C293.514 196.092 294.684 196.17 295.854 196.384C296.225 196.462 296.381 195.897 296.01 195.819C295.035 195.643 294.041 195.546 293.046 195.565C291.993 195.604 290.979 195.897 289.926 195.916C288.932 195.936 287.996 195.507 287.001 195.39C285.929 195.253 284.856 195.39 283.784 195.526C281.502 195.838 279.318 195.819 277.037 195.702C274.95 195.604 272.883 195.585 270.894 196.267C270.563 196.384 270.699 196.95 271.07 196.833Z" fill="#E8E8E8"/>
<path d="M109.785 211.906C125.873 211.906 141.98 211.906 158.067 211.906C158.438 211.906 158.438 211.321 158.067 211.321C141.98 211.321 125.873 211.321 109.785 211.321C109.415 211.321 109.415 211.906 109.785 211.906Z" fill="#161616"/>
<path d="M154.694 215.085C162.962 215.085 171.21 215.085 179.478 215.085C179.849 215.085 179.849 214.5 179.478 214.5C171.21 214.5 162.962 214.5 154.694 214.5C154.304 214.5 154.304 215.085 154.694 215.085Z" fill="#161616"/>
<path d="M217.581 205.764C226.259 205.764 234.956 205.764 243.633 205.764C244.004 205.764 244.004 205.179 243.633 205.179C234.956 205.179 226.259 205.179 217.581 205.179C217.211 205.179 217.211 205.764 217.581 205.764Z" fill="#161616"/>
<path d="M253.578 206.622C258.726 206.622 263.894 206.622 269.042 206.622C269.412 206.622 269.412 206.037 269.042 206.037C263.894 206.037 258.726 206.037 253.578 206.037C253.208 206.037 253.208 206.622 253.578 206.622Z" fill="#161616"/>
<path d="M41.5935 200.694C50.7781 200.694 59.9431 200.694 69.1276 200.694C69.4981 200.694 69.4981 200.109 69.1276 200.109C59.9431 200.109 50.7781 200.109 41.5935 200.109C41.223 200.109 41.223 200.694 41.5935 200.694Z" fill="#161616"/>
<path d="M67.8602 198.568C72.9497 198.568 78.0197 198.568 83.1092 198.568C83.4797 198.568 83.4797 197.983 83.1092 197.983C78.0197 197.983 72.9497 197.983 67.8602 197.983C67.4897 197.983 67.4897 198.568 67.8602 198.568Z" fill="#161616"/>
<path d="M155.357 203.326C162.026 203.326 168.675 203.326 175.344 203.326C175.715 203.326 175.715 202.741 175.344 202.741C168.675 202.741 162.026 202.741 155.357 202.741C154.967 202.741 154.967 203.326 155.357 203.326Z" fill="#161616"/>
<path d="M104.832 189.482C102.843 188.565 101.147 187.103 100.016 185.211C99.4891 184.334 99.0406 183.339 98.8066 182.345C98.5921 181.35 98.9821 180.336 100.152 180.492C100.913 180.59 101.517 181.097 102.063 181.565C102.18 181.409 102.297 181.253 102.414 181.097C101.147 180.278 100.152 179.147 99.5476 177.762C99.1381 176.807 98.1826 173.784 99.8206 173.492C100.016 173.453 100.074 173.219 99.9961 173.063C98.4361 169.845 98.0656 166.257 97.7341 162.747C97.5781 161.07 97.4221 159.042 98.7286 157.755C100.269 156.195 102.395 157.287 103.682 158.613C106.08 161.09 107.328 164.619 108.596 167.759C109.922 171.054 111.072 174.408 111.911 177.84C112.866 181.818 113.373 185.894 113.159 189.969C113.139 190.34 113.724 190.34 113.744 189.969C114.173 181.623 111.657 173.531 108.479 165.926C107.172 162.806 105.69 158.789 102.609 156.995C101.42 156.312 99.9766 156.117 98.8066 156.936C97.6171 157.775 97.1686 159.257 97.0906 160.641C96.9931 162.767 97.3636 165.009 97.6951 167.096C98.0266 169.26 98.5726 171.386 99.5281 173.355C99.5866 173.219 99.6451 173.063 99.7036 172.926C97.9876 173.238 98.3386 175.715 98.6701 176.904C99.1966 178.854 100.464 180.512 102.161 181.604C102.434 181.779 102.765 181.35 102.512 181.136C101.576 180.356 100.386 179.478 99.1186 180.044C97.7731 180.648 98.1436 182.208 98.5336 183.32C99.5476 186.264 101.771 188.682 104.579 189.969C104.871 190.145 105.183 189.638 104.832 189.482Z" fill="#E8E8E8"/>
<path d="M111.052 172.517C110.428 167.856 110.623 163.293 112.086 158.808C112.788 156.644 113.529 154.499 114.25 152.354C114.835 150.618 115.869 147.401 118.345 148.902C120.12 149.975 120.451 152.822 120.861 154.674C121.368 156.936 121.719 159.218 121.933 161.538C122.343 165.906 122.284 170.333 121.816 174.701C121.27 179.849 120.198 184.938 118.735 189.891C118.638 190.262 119.184 190.398 119.301 190.047C122.128 180.434 123.552 170.274 122.382 160.29C122.109 157.872 121.68 155.474 121.095 153.134C120.646 151.379 120.178 149.175 118.404 148.278C116.941 147.557 115.537 148.259 114.757 149.585C114.309 150.345 114.055 151.223 113.763 152.042C113.334 153.329 112.905 154.596 112.476 155.883C111.618 158.457 110.701 160.992 110.35 163.703C109.98 166.628 110.097 169.592 110.487 172.517C110.506 172.887 111.091 172.887 111.052 172.517Z" fill="#E8E8E8"/>
<path d="M241.312 102.258C241.39 100.757 244.237 102.258 245.037 102.122C246.09 101.946 246.324 100.776 247.533 101.03C248.274 101.186 248.976 101.537 249.756 101.459C250.263 101.4 250.634 101.108 251.121 100.971C251.882 100.757 252.642 100.991 253.208 101.537C253.481 101.79 253.89 101.381 253.617 101.127C252.759 100.308 251.687 100.133 250.595 100.542C249.678 100.893 249.132 100.854 248.216 100.581C247.767 100.445 247.299 100.308 246.831 100.367C246.285 100.445 246.071 100.718 245.7 101.049C244.588 102.005 243.789 101.127 242.619 100.952C241.722 100.815 240.805 101.264 240.747 102.258C240.708 102.648 241.293 102.648 241.312 102.258Z" fill="#1E1E1E"/>
<path d="M244.647 99.2939C244.803 98.0069 247.065 99.0989 247.728 99.1574C248.625 99.2354 248.839 98.7284 249.483 98.2604C250.672 97.3829 251.53 98.4944 252.72 98.4359C253.051 98.4164 253.227 98.2214 253.5 98.0654C254.26 97.6364 255.001 97.5389 255.684 98.1824C255.957 98.4359 256.366 98.0264 256.093 97.7729C255.294 97.0319 254.338 96.9734 253.383 97.4024C252.954 97.5974 253.207 97.8119 252.466 97.8119C252.096 97.8119 251.628 97.5194 251.257 97.4219C250.731 97.2854 250.185 97.2074 249.658 97.4219C248.8 97.7729 248.761 98.6309 247.552 98.5334C246.948 98.4944 246.421 98.1239 245.797 98.0849C244.959 98.0264 244.14 98.3774 244.023 99.2744C244.003 99.6644 244.588 99.6644 244.647 99.2939Z" fill="#1E1E1E"/>
<path d="M59.6309 169.825C60.4304 169.24 61.1129 168.967 62.0489 169.416C62.4194 169.591 62.7704 169.786 63.1799 169.864C64.0379 170.001 64.8179 169.572 65.5784 169.24C66.2804 168.928 66.8654 168.753 67.6064 169.143C68.0159 169.357 68.3474 169.65 68.8154 169.728C69.7514 169.903 71.1359 169.006 71.8769 169.728C72.1499 169.981 72.5594 169.572 72.2864 169.318C71.5649 168.616 70.6874 168.948 69.7904 169.104C69.1859 169.201 68.7959 169.182 68.2499 168.87C67.9964 168.714 67.7624 168.519 67.4699 168.421C67.0799 168.285 66.6899 168.265 66.2804 168.343C65.7539 168.46 65.2664 168.733 64.7594 168.948C63.8429 169.338 63.2384 169.318 62.3024 168.909C61.1129 168.363 60.3524 168.538 59.2799 169.318C59.0459 169.533 59.3384 170.04 59.6309 169.825Z" fill="#1E1E1E"/>
<path d="M65.2664 166.803C66.5924 165.321 68.8544 167.037 70.4924 166.686C71.0969 166.549 71.4869 166.354 72.1109 166.569C72.4814 166.705 72.7934 166.959 73.1639 167.095C73.8854 167.349 74.5679 167.232 75.2309 166.92C75.5624 166.764 75.2699 166.257 74.9384 166.413C73.5734 167.076 72.9689 166.042 71.7794 165.847C71.4089 165.789 71.1164 165.886 70.7654 166.003C70.1024 166.198 69.5954 166.218 68.8934 166.062C67.5284 165.769 65.9294 165.184 64.8179 166.413C64.6034 166.666 65.0129 167.076 65.2664 166.803Z" fill="#1E1E1E"/>
<path d="M48.2233 149.194C47.2483 148.122 48.1648 146.211 49.6663 146.62C51.4798 147.108 51.0118 149.662 49.1983 149.643C48.8278 149.643 48.8278 150.228 49.1983 150.228C50.2903 150.228 51.2848 149.409 51.4408 148.317C51.5968 147.303 50.9143 146.425 49.9783 146.094C47.8528 145.353 46.3708 148.024 47.8138 149.604C48.0673 149.877 48.4768 149.467 48.2233 149.194Z" fill="#8E8E8E"/>
<path d="M148.785 143.091C148.063 143.618 147.517 144.32 147.283 145.178C147.01 146.192 147.712 147.615 147.03 148.376C146.601 148.863 145.86 149.195 145.665 149.858C145.587 150.092 145.606 150.306 145.684 150.54C145.782 150.872 145.918 150.93 145.918 151.281C145.918 151.866 145.411 152.12 144.924 152.373C144.592 152.549 144.885 153.056 145.216 152.88C145.84 152.549 146.64 152.003 146.581 151.203C146.542 150.696 146.055 150.384 146.328 149.838C146.503 149.507 146.952 149.253 147.205 149C147.693 148.551 148.024 148.083 147.946 147.401C147.849 146.66 147.634 146.094 147.829 145.334C148.024 144.612 148.453 144.027 149.058 143.598C149.37 143.384 149.077 142.877 148.785 143.091Z" fill="#8E8E8E"/>
<path d="M151.651 145.041C149.994 144.885 149.799 146.932 149.877 148.122C149.916 148.785 149.955 149.448 149.545 149.994C149.331 150.267 149.019 150.481 148.882 150.813C148.765 151.105 148.843 151.339 148.902 151.651C149.077 152.607 148.551 153.231 147.907 153.855C147.634 154.128 148.044 154.537 148.317 154.264C148.824 153.757 149.409 153.172 149.545 152.431C149.604 152.08 149.467 151.807 149.467 151.476C149.467 150.871 149.838 150.657 150.111 150.228C150.54 149.604 150.52 148.843 150.462 148.122C150.403 147.283 150.345 145.509 151.651 145.626C152.041 145.665 152.022 145.08 151.651 145.041Z" fill="#8E8E8E"/>
<path d="M153.426 72.93C153.504 71.5845 155.766 72.0915 156.604 71.643C157.209 71.3115 157.56 70.707 157.892 70.1415C158.087 69.81 158.262 69.4395 158.516 69.147C159.023 68.562 159.607 68.64 160.309 68.5815C161.226 68.5035 161.967 68.055 162.533 67.3335C162.767 67.041 162.357 66.6315 162.123 66.924C161.577 67.626 160.894 67.9575 160.017 68.016C159.588 68.0355 159.179 68.016 158.769 68.211C158.028 68.5815 157.677 69.381 157.287 70.0635C156.975 70.59 156.683 71.019 156.098 71.2335C155.532 71.448 154.889 71.331 154.304 71.4675C153.524 71.643 152.919 72.1305 152.861 72.9495C152.822 73.3005 153.407 73.3005 153.426 72.93Z" fill="#8E8E8E"/>
<path d="M155.142 75.3675C155.727 74.412 156.916 74.178 157.852 73.71C158.691 73.3005 159.12 72.774 159.373 71.877C159.744 70.4925 160.816 70.668 162.006 70.4925C162.727 70.3755 163.312 70.1415 163.605 69.42C163.741 69.069 163.176 68.913 163.039 69.264C162.669 70.1415 161.206 69.927 160.426 70.1025C159.627 70.2585 159.081 70.629 158.847 71.4285C158.632 72.15 158.554 72.5985 157.891 73.008C157.482 73.2615 157.014 73.437 156.565 73.632C155.785 73.9635 155.064 74.334 154.615 75.075C154.44 75.387 154.947 75.6795 155.142 75.3675Z" fill="#8E8E8E"/>
<path d="M243.029 164.833C242.561 163.39 244.042 161.908 245.446 162.786C246.987 163.741 246.129 165.925 244.413 165.886C244.043 165.867 244.043 166.452 244.413 166.471C246.597 166.549 247.747 163.761 245.914 162.415C244.12 161.089 241.82 162.961 242.463 165.009C242.58 165.36 243.146 165.204 243.029 164.833Z" fill="#8E8E8E"/>
<path d="M151.164 184.08C150.618 183.066 151.203 181.584 152.509 181.779C153.036 181.857 153.543 182.247 153.543 182.832C153.543 183.397 153.094 183.963 152.509 183.982C152.139 184.002 152.139 184.587 152.509 184.567C154.342 184.489 154.674 181.896 152.958 181.291C151.066 180.648 149.818 182.793 150.657 184.372C150.852 184.704 151.359 184.411 151.164 184.08Z" fill="#8E8E8E"/>
<path d="M234.039 69.5955C233.473 68.9715 234.292 68.094 234.994 68.5035C235.872 69.03 235.345 70.1025 234.526 70.317C234.156 70.4145 234.312 70.98 234.682 70.8825C236.106 70.5315 236.593 68.523 235.072 67.899C233.785 67.3725 232.693 68.991 233.61 70.005C233.883 70.2975 234.292 69.888 234.039 69.5955Z" fill="#8E8E8E"/>
<path d="M33.5204 89.5049C32.3894 88.9199 33.0719 87.1259 34.3394 87.4964C35.8214 87.9254 35.3144 89.8364 34.0079 90.1094C33.6374 90.1874 33.7934 90.7529 34.1639 90.6749C36.1139 90.2459 36.4844 87.3599 34.3394 86.8919C32.4869 86.4824 31.5509 89.1344 33.2084 89.9924C33.5594 90.1874 33.8519 89.6804 33.5204 89.5049Z" fill="#1E1E1E"/>
<path d="M179.654 201.981C179.732 204.516 179.79 207.051 179.868 209.586C171.815 211.965 167.856 213.525 167.993 214.266C168.168 215.202 174.623 214.89 187.356 213.33C187.083 209.001 186.81 204.652 186.518 200.323C184.236 200.869 181.955 201.415 179.654 201.981Z" fill="#161616" stroke="#161616" stroke-width="2" stroke-miterlimit="10"/>
<path d="M205.14 152.003C203.97 152.354 204.224 152.49 197.906 157.346C191.217 162.474 187.883 165.048 185.562 166.354C184.217 167.115 183.125 167.661 181.779 168.909C179.556 170.996 178.425 173.375 177.548 175.695C174.818 182.93 174.408 189.852 174.33 192.933C174.252 195.78 174.311 199.797 174.993 204.614C177.099 205.121 178.854 205.257 180.102 205.276C182.267 205.315 185.348 205.354 188.546 203.716C189.482 203.229 190.203 202.722 190.652 202.391C190.086 199.056 189.657 194.863 189.872 190.047C190.047 186.166 190.574 182.754 191.198 179.927C192.231 179.147 193.811 178.035 195.858 176.923C198.218 175.656 200.577 174.72 207.09 172.809C214.89 170.528 215.163 170.781 216.314 169.806C219.297 167.31 221.442 162.279 219.765 157.911C217.581 152.158 209.898 150.618 205.14 152.003Z" fill="white"/>
<path d="M202.137 153.972C198.53 156.487 194.942 159.022 191.334 161.538C188.136 163.78 184.704 165.886 181.779 168.519C178.971 171.034 177.411 174.174 176.397 177.762C175.286 181.74 174.564 185.854 174.194 189.969C173.765 194.707 173.862 199.465 174.408 204.184C174.447 204.555 175.032 204.555 174.993 204.184C174.038 196.111 174.506 187.902 176.417 180.024C177.333 176.221 178.542 172.555 181.37 169.728C184.1 166.998 187.532 164.931 190.671 162.727C194.591 159.978 198.51 157.228 202.43 154.479C202.742 154.264 202.449 153.757 202.137 153.972Z" fill="#161616"/>
<path d="M213.194 170.508C208.904 171.736 204.672 173.101 200.499 174.661C198.666 175.344 196.794 176.026 195 176.826C193.518 177.489 192.134 178.327 191.276 179.751C191.081 180.082 191.588 180.375 191.783 180.043C192.719 178.464 194.396 177.684 196.014 177.021C197.886 176.26 199.778 175.539 201.689 174.837C205.53 173.433 209.411 172.185 213.33 171.073C213.701 170.976 213.545 170.41 213.194 170.508Z" fill="#161616"/>
<path d="M191.529 176.826C189.501 185.114 189.131 193.733 190.437 202.157C190.496 202.527 191.061 202.371 191.003 202.001C189.716 193.674 190.086 185.152 192.095 176.982C192.173 176.611 191.607 176.455 191.529 176.826Z" fill="#161616"/>
<path d="M174.662 204.165C174.759 205.257 176.456 205.082 177.197 205.16C178.991 205.335 180.785 205.472 182.598 205.374C185.523 205.218 188.39 204.399 190.691 202.527C190.983 202.293 190.574 201.884 190.281 202.118C188.312 203.717 185.874 204.497 183.378 204.731C182.091 204.848 180.804 204.848 179.517 204.77C179.049 204.75 175.286 204.653 175.247 204.165C175.208 203.795 174.623 203.795 174.662 204.165Z" fill="#161616"/>
<path opacity="0.11" d="M213.018 163.937C210.327 162.572 207.246 166.062 199.641 169.533C193.421 172.38 191.88 171.678 189.443 173.16C185.153 175.754 181.35 183.144 184.08 204.614C184.685 204.614 185.387 204.555 186.167 204.399C188.214 203.97 189.677 202.995 190.554 202.313C189.872 198.042 189.462 192.66 190.125 186.518C190.398 183.924 190.827 181.545 191.334 179.4C193.187 178.328 196.073 176.787 199.778 175.344C208.767 171.815 214.344 172.029 215.241 168.87C215.709 167.096 214.617 164.736 213.018 163.937Z" fill="#666666"/>
<path opacity="0.12" d="M211.049 171.171C210.951 170.644 204.633 170.917 198.003 173.14C193.772 174.544 191.471 175.324 189.462 177.528C186.264 180.999 186.089 185.464 185.835 191.665C185.718 194.61 185.796 198.861 186.83 203.95C188.117 203.541 189.384 203.151 190.671 202.741C190.184 199.114 189.872 194.746 190.125 189.813C190.32 186.127 190.769 182.832 191.334 179.946C191.9 179.341 192.758 178.483 193.967 177.645C196.599 175.792 198.92 175.324 201.65 174.583C205.179 173.589 211.146 171.678 211.049 171.171Z" fill="#666666"/>
<path d="M243.75 188.701C248.001 187.317 251.609 186.537 254.241 186.069C258.005 185.406 258.882 185.542 259.584 186.069C260.793 186.966 260.54 188.292 260.988 196.56C261.144 199.27 261.222 199.953 260.676 200.791C258.824 203.736 252.662 203.599 252.194 202.312C252.018 201.805 252.603 200.869 255.528 198.978C255.431 197.125 255.333 195.273 255.216 193.42C251.882 194.22 248.547 195.039 245.232 195.838C244.764 193.479 244.257 191.1 243.75 188.701Z" fill="#161616" stroke="#161616" stroke-width="2" stroke-miterlimit="10"/>
<path d="M209.684 155.122C208.397 158.145 209.313 161.382 209.742 162.903C210.23 164.658 210.698 164.892 211.478 167.251C212.316 169.786 212.57 171.619 212.921 173.823C213.428 177.04 214.013 180.706 214.929 184.372C216.06 188.896 216.684 191.217 218.556 193.733C219.375 194.844 221.306 197.34 224.699 198.666C225.342 198.92 226.2 199.193 228.326 199.466C230.666 199.778 234.293 200.246 239.09 199.661C243.185 199.173 246.597 198.081 249.152 197.048C249.659 195.176 249.639 193.615 249.561 192.621C249.444 191.373 249.249 189.053 247.553 187.083C247.065 186.518 246.344 185.698 245.135 185.269C243.809 184.821 242.619 185.113 240.513 185.679C238.076 186.322 237.179 187.025 235.58 186.693C234.897 186.557 234.39 186.283 234.078 186.088C233.61 185.367 232.967 184.275 232.362 182.871C230.783 179.205 230.666 176.26 230.451 173.023C229.964 165.73 229.71 162.084 228.54 158.047C227.312 153.816 226.961 151.69 225.128 150.403C223.236 149.077 221.091 149.175 219.765 149.233C216.509 149.37 211.478 150.93 209.684 155.122Z" fill="white"/>
<path d="M226.064 151.749C229.262 158.457 229.515 165.984 230.217 173.238C230.724 178.484 231.173 185.679 236.496 188.448C236.828 188.624 237.12 188.117 236.789 187.941C234.059 186.518 232.694 183.71 231.933 180.843C231.114 177.704 230.9 174.408 230.627 171.171C230.042 164.463 229.515 157.618 226.59 151.437C226.415 151.105 225.908 151.398 226.064 151.749Z" fill="#161616"/>
<path d="M210.21 165.106C213.642 172.887 212.784 181.759 216.119 189.559C217.445 192.679 219.434 195.604 222.261 197.535C225.693 199.855 230.159 200.323 234.195 200.265C239.285 200.187 244.296 199.017 249.015 197.164C249.366 197.028 249.21 196.462 248.859 196.599C244.745 198.217 240.416 199.329 235.989 199.602C231.777 199.875 226.98 199.66 223.256 197.476C216.723 193.635 214.988 185.386 213.935 178.503C213.233 173.842 212.609 169.143 210.678 164.794C210.561 164.482 210.054 164.775 210.21 165.106Z" fill="#161616"/>
<path d="M233.708 186.186C237.237 188.253 241.274 184.275 244.998 185.484C247.065 186.166 248.079 188.389 248.645 190.339C249.269 192.445 249.347 194.649 248.918 196.794C248.84 197.164 249.405 197.32 249.483 196.95C249.873 194.922 249.854 192.835 249.386 190.827C248.937 188.994 248.157 186.907 246.617 185.698C245.193 184.567 243.302 184.548 241.586 184.879C239.285 185.328 236.262 187.024 234 185.698C233.669 185.503 233.376 185.991 233.708 186.186Z" fill="#161616"/>
<path opacity="0.11" d="M223.178 151.495C219.902 154.713 226.512 161.791 226.629 173.686C226.727 182.988 224.523 186.849 227.487 189.969C231.738 194.434 241.352 191.86 242.405 191.568C244.082 191.1 247.67 190.417 247.962 188.604C248.138 187.414 246.89 186.069 245.622 185.406C241.761 183.358 238.154 187.882 234.761 186.4C232.206 185.269 231.641 181.525 230.568 174.564C229.691 168.85 230.237 167.641 229.203 161.362C228.443 156.741 227.468 150.969 225.128 150.637C224.192 150.481 223.334 151.32 223.178 151.495Z" fill="#666666"/>
<path opacity="0.17" d="M228.482 159.139C228.17 159.159 228.15 162.903 228.111 167.524C228.014 180.648 228.755 183.436 230.451 185.893C231.153 186.907 232.479 188.779 234.897 189.832C240.24 192.192 247.338 189.091 247.358 187.122C247.358 186.127 245.544 185.386 245.252 185.269C243.399 184.528 241.976 185.25 238.212 185.893C236.652 186.166 235.326 186.303 234.39 186.381C233.688 185.503 232.713 184.138 231.933 182.305C230.432 178.854 230.549 176.046 230.451 173.062C230.237 165.691 228.872 159.12 228.482 159.139Z" fill="#666666"/>
<path d="M168.166 86.3474C168.55 86.1115 169.353 86.8022 169.835 87.222C171.811 88.9368 172.779 90.9622 172.94 91.5715C173.246 92.7041 173.552 93.8367 173.869 94.9851C174.17 94.8345 174.839 94.5573 175.598 94.6978C176.939 94.9663 177.516 96.3343 177.655 96.7173C177.847 97.2058 178.073 98.0338 177.696 100.013C177.311 102.047 176.8 102.668 176.478 103.903C175.733 106.761 176.909 109.361 177.51 110.663C178.023 111.812 179.076 114.115 181.677 115.658C183.97 117.015 186.252 117.047 187.27 117.045C188.26 117.038 188.752 116.916 191.595 116.264C197.382 114.934 199.182 114.546 201.516 114.878C202.787 115.052 204.299 115.29 204.769 116.35C205.343 117.648 203.953 119.407 203.368 120.157C202.716 120.98 201.375 122.412 198.189 123.78C197.087 124.257 193.757 125.562 189.088 125.65C187.13 125.694 184.451 125.715 181.306 124.552C179.932 124.041 177.701 123.195 175.657 121.094C173.842 119.235 173.091 117.34 172.468 115.714C171.772 113.924 170.845 110.776 171.05 106.569C169.729 104.951 168.667 103.748 167.895 102.937C166.596 101.545 165.979 101.008 165.859 100.028C165.826 99.6887 165.821 99.1583 165.429 98.696C165.061 98.265 164.694 98.2943 164.326 97.9608C163.906 97.592 163.45 96.8135 163.681 96.0113C163.86 95.3687 164.415 95.0051 164.599 94.8929C164.637 94.4524 164.762 93.7043 165.268 93.0128C165.618 92.5349 166.005 92.2718 166.428 91.9581C166.941 91.602 167.192 91.4161 167.488 91.3904C168.382 91.286 169.117 92.3429 169.218 92.5111C169.222 91.7311 169.089 91.1259 168.989 90.7627C168.661 89.5012 168.152 89.0773 167.975 87.8245C167.927 87.3016 167.83 86.5484 168.166 86.3474Z" fill="white"/>
<path d="M205.077 116.34C204.583 114.594 202.685 114.424 201.132 114.459C198.812 114.505 196.497 114.789 194.225 115.26C189.907 116.181 185.404 117.967 181.001 116.547C180.643 116.425 180.41 116.962 180.768 117.084C184.35 118.215 188.028 117.38 191.563 116.483C193.691 115.948 195.823 115.483 197.993 115.234C199.054 115.126 200.127 115.034 201.188 115.024C202.459 115.004 204.086 115.036 204.518 116.536C204.629 116.915 205.176 116.703 205.077 116.34Z" fill="#161616"/>
<path d="M174.563 96.5099C173.844 95.999 174.477 95.1171 175.082 94.9838C175.558 94.8732 176.048 95.141 176.414 95.4043C177.089 95.9227 177.522 96.7674 177.677 97.5989C177.931 98.9887 177.343 100.323 176.899 101.624C176.115 103.905 175.911 106.314 176.441 108.665C177.504 113.339 181.389 116.842 186.124 117.53C186.506 117.587 186.58 116.998 186.209 116.957C182.959 116.503 180.017 114.631 178.316 111.814C176.568 108.934 176.322 105.329 177.337 102.148C178.122 99.7697 179.25 96.6751 176.674 94.8713C175.955 94.3605 174.872 94.1442 174.186 94.823C173.566 95.4282 173.483 96.4612 174.229 96.9761C174.505 97.1843 174.866 96.7221 174.563 96.5099Z" fill="#161616"/>
<path d="M173.997 94.4047C173.694 92.6871 173.204 91.0113 172.311 89.5129C171.53 88.1983 170.217 86.526 168.643 86.1394C167.218 85.7886 167.615 87.339 167.825 88.1787C168.306 90.1039 169.35 91.9035 169.671 93.8748C169.727 94.2456 170.309 94.1784 170.252 93.8076C170.056 92.5937 169.578 91.4913 169.147 90.3541C168.916 89.7484 168.713 89.1467 168.541 88.5218C168.437 88.1858 168.152 87.572 168.22 87.2057C168.329 86.5667 168.901 86.8466 169.282 87.0983C171.789 88.6131 172.942 91.7393 173.427 94.4875C173.488 94.831 174.069 94.7639 173.997 94.4047Z" fill="#161616"/>
<path d="M169.887 93.5444C169.795 92.5689 169.214 91.6883 168.292 91.3285C167.557 91.0243 166.499 91.1045 166.043 91.8314C165.516 92.6593 166.251 93.8137 166.602 94.5488C167.161 95.6633 167.858 96.603 168.986 97.1745C169.325 97.3362 169.558 96.7992 169.219 96.6375C167.947 96.0029 167.299 94.7358 166.748 93.4693C166.528 92.9767 166.501 92.9726 166.758 92.3695C166.784 91.8158 167.093 91.6108 167.631 91.7462C167.779 91.7821 167.911 91.8296 168.059 91.8655C168.783 92.1541 169.224 92.8467 169.306 93.6116C169.335 93.9783 169.916 93.9112 169.887 93.5444Z" fill="#161616"/>
<path d="M165.963 92.2795C164.869 92.6051 164.278 93.6745 164.448 94.7869C164.666 96.2272 165.945 97.0998 167.068 97.7961C167.387 97.9967 167.748 97.5345 167.429 97.3339C166.675 96.8736 165.859 96.3623 165.387 95.5953C164.769 94.5975 164.92 93.1982 166.174 92.8266C166.526 92.7115 166.314 92.1643 165.963 92.2795Z" fill="#161616"/>
<path d="M164.535 94.4793C163.449 94.8479 163.235 96.0987 163.593 97.0717C164.135 98.4903 165.49 98.9421 166.854 99.2419C167.232 99.3258 167.305 98.7372 166.939 98.669C166.089 98.4734 165.197 98.2853 164.6 97.6114C164.003 96.9374 163.559 95.4218 164.747 95.0264C165.098 94.9113 164.887 94.3641 164.535 94.4793Z" fill="#161616"/>
<path d="M169.626 94.9275C169.818 95.5135 169.929 96.5476 169.071 96.6016C168.704 96.6308 168.772 97.2123 169.138 97.1831C169.646 97.1467 170.088 96.7942 170.258 96.3037C170.46 95.79 170.35 95.2161 170.162 94.7003C170.046 94.3486 169.499 94.5602 169.626 94.9275Z" fill="#161616"/>
<path d="M168.528 96.7859C168.412 97.382 167.743 97.6592 167.254 97.2939C166.967 97.0701 166.594 97.5166 166.893 97.7561C167.743 98.4119 168.92 97.9034 169.128 96.8749C169.169 96.5046 168.596 96.4196 168.528 96.7859Z" fill="#161616"/>
<path d="M167.532 97.8648C167.592 98.3058 167.157 98.7013 166.736 98.625C166.37 98.5567 166.269 99.1412 166.651 99.1978C167.454 99.3308 168.23 98.6095 168.113 97.7977C168.068 97.4425 167.475 97.494 167.532 97.8648Z" fill="#161616"/>
<path d="M173.389 94.3703C173.488 94.831 173.571 95.3034 173.67 95.7641C173.742 96.1233 174.335 96.0718 174.251 95.697C174.152 95.2363 174.069 94.7639 173.97 94.3032C173.898 93.944 173.316 94.0111 173.389 94.3703Z" fill="#161616"/>
<path d="M174.248 97.0347C174.801 97.1586 175.275 97.5355 175.502 98.071C175.66 98.415 176.208 98.2034 176.05 97.8594C175.726 97.1284 175.116 96.6337 174.333 96.4619C173.955 96.378 173.87 96.9508 174.248 97.0347Z" fill="#161616"/>
<path d="M173.882 97.7191C172.257 98.2448 171.199 99.8304 171.366 101.528C171.407 101.91 171.988 101.843 171.947 101.461C171.799 100.017 172.734 98.6919 174.093 98.2662C174.461 98.1395 174.249 97.5923 173.882 97.7191Z" fill="#161616"/>
<path d="M165.432 98.8638C165.456 100.303 166.07 101.426 167.114 102.375C168.546 103.716 169.79 105.1 170.792 106.809C170.981 107.13 171.451 106.782 171.261 106.461C170.496 105.135 169.574 103.925 168.48 102.842C167.227 101.611 166.05 100.712 166.014 98.7966C166 98.4183 165.419 98.4854 165.432 98.8638Z" fill="#161616"/>
<path d="M170.693 106.251C171.289 109.281 171.397 112.405 172.24 115.374C173.021 118.096 174.595 120.546 176.793 122.364C179.053 124.232 181.771 125.081 184.643 125.451C187.609 125.849 190.666 125.912 193.633 125.362C197.1 124.733 200.372 123.253 202.959 120.849C203.233 120.597 202.885 120.127 202.61 120.379C199.765 123.024 196.087 124.513 192.255 124.977C188.691 125.41 184.687 125.249 181.241 124.138C177.784 123.012 174.932 120.345 173.459 117.018C171.957 113.617 171.996 109.776 171.279 106.157C171.202 105.825 170.621 105.892 170.693 106.251Z" fill="#161616"/>
<path opacity="0.16" d="M203.725 118.314C203.241 117.726 200.699 119.733 197.49 120.972C192.836 122.749 185.477 123.4 180.546 119.993C177.056 117.58 175.548 113.648 173.16 107.384C172.394 105.402 171.2 101.796 168.477 97.6008C166.229 94.1451 165.155 93.6792 164.882 93.8338C164.713 93.9343 164.824 94.3132 164.451 94.8572C164.133 95.3118 163.876 95.2598 163.714 95.5982C163.414 96.2089 163.909 97.0072 164.075 97.2966C164.501 98.0009 165.131 98.3592 165.481 98.5365C165.56 98.9387 165.721 99.5479 166.026 100.22C166.627 101.522 167.323 102.002 168.521 103.322C169.754 104.69 170.568 105.591 171.06 106.877C171.533 108.104 171.412 108.923 171.468 110.241C171.493 110.635 171.676 114.384 173.459 117.869C174.023 118.956 175.328 121.435 178.118 123.201C179.697 124.216 181.095 124.563 182.68 124.965C183.689 125.212 188.258 126.266 194.372 124.984C197.047 124.433 199.28 123.942 201.337 122.1C202.823 120.731 204.14 118.808 203.725 118.314Z" fill="#666666"/>
<path opacity="0.17" d="M167.457 98.7458C168.39 99.2187 168.728 100.328 168.858 100.766C169.637 103.223 170.246 103.062 172.003 106.348C173.455 109.058 172.82 109.675 174.168 113.652C175.454 117.481 176.502 120.564 179.109 122.442C182.812 125.11 187.532 124.109 187.516 124.316C187.515 124.511 183.055 125.634 178.96 123.451C175.238 121.478 173.616 117.752 173.145 116.693C172.398 114.965 172.079 113.357 171.741 111.592C171.335 109.538 171.204 107.79 171.129 106.511C170.362 105.38 169.629 104.588 169.11 104.051C167.81 102.757 167.028 102.39 166.317 101.072C166.132 100.724 165.356 99.2845 165.87 98.7334C166.215 98.3804 166.951 98.4896 167.457 98.7458Z" fill="#666666"/>
<path d="M200.051 115.596C199.524 116.24 198.842 117.312 198.335 125.834C198.062 130.553 197.789 135.506 198.198 142.779C198.374 145.743 198.705 149.799 199.388 154.596C201.572 155.844 205.55 157.697 210.815 158.009C219.258 158.516 225.42 154.694 227.487 153.29C226.434 151.203 224.991 147.966 224.075 143.832C222.944 138.762 223.49 136.52 222.885 130.299C222.086 122.07 221.696 117.956 219.2 115.46C214.422 110.663 203.931 110.819 200.051 115.596Z" fill="#3A3A3A"/>
<path opacity="0.22" d="M210.678 112.086C212.062 114.153 213.837 117.214 215.241 121.192C215.845 122.928 218.848 131.859 216.664 143.344C215.514 149.448 213.271 154.362 211.126 157.989C212.628 158.086 214.383 158.067 216.313 157.813C221.442 157.111 225.284 154.986 227.565 153.426C226.844 152.1 225.927 150.228 225.147 147.888C224.991 147.381 224.231 145.099 223.724 141.55C223.373 139.132 223.431 138.333 223.197 134.394C223.139 133.477 222.905 129.753 222.398 125.463C221.657 119.184 221.091 117.819 220.155 116.61C218.829 114.894 217.152 113.977 216.411 113.568C214.071 112.359 211.887 112.125 210.678 112.086Z" fill="#666666"/>
<path opacity="0.22" d="M222.417 126.731C222.125 129.89 221.735 133.146 221.267 136.5C220.194 144.066 218.771 151.106 217.152 157.56C218.478 157.385 220.175 157.034 222.027 156.312C224.445 155.376 226.259 154.128 227.487 153.153C224.894 148.59 223.997 144.768 223.665 142.038C223.334 139.289 223.451 136.637 222.807 130.163C222.651 128.72 222.515 127.53 222.417 126.731Z" fill="#666666"/>
<path d="M192.095 92.391C191.705 93.3465 191.724 94.4775 191.724 96.759C191.724 98.3775 191.744 100.639 192.582 103.311C193.226 105.378 193.85 107.445 195.78 109.278C196.326 109.804 198.686 112.047 202.02 112.047C202.664 112.047 203.21 111.969 203.561 111.891C203.717 112.476 204.048 113.295 204.672 114.133C205.004 114.562 205.335 114.894 205.628 115.147C206.096 115.147 207.285 115.069 208.514 114.289C209.684 113.529 210.23 112.534 210.425 112.105C210.074 111.754 209.157 110.721 209.099 109.219C209.079 108.81 209.138 108.459 209.196 108.147C209.84 107.328 210.522 106.255 211.107 104.949C211.4 104.305 211.614 103.701 211.809 103.135C212.102 103.213 212.687 103.311 213.252 103.038C213.857 102.726 214.071 102.121 214.325 101.38C214.695 100.288 215.105 99.06 214.598 97.968C214.11 96.9345 213.35 97.1685 212.687 96.213C211.673 94.7895 212.667 93.3465 212.258 91.7865C211.634 89.388 208.163 88.3545 206.817 87.945C201.299 86.307 193.811 88.14 192.095 92.391Z" fill="white"/>
<path d="M191.588 95.1999C192.076 95.2779 192.388 94.5173 193.148 93.7568C193.928 92.9963 195.235 92.1968 197.575 91.9823C199.486 91.7873 201.397 91.5728 203.308 91.3778C203.912 91.4168 205.297 91.5728 206.681 92.5283C207.793 93.3083 208.397 94.2443 208.69 94.7513C209.294 94.7708 209.879 94.8098 210.484 94.8293C210.601 95.5508 210.737 96.2723 210.854 96.9938C210.932 96.9158 211.985 95.9798 213.077 96.3308C213.955 96.6038 214.325 97.5398 214.481 97.9688C214.969 99.1584 214.637 100.114 214.93 100.192C215.281 100.309 215.963 99.0219 216.041 98.8464C216.217 98.5149 216.782 97.3644 216.938 95.5704C217.055 94.1078 217.133 93.1328 216.568 92.2163C216.373 91.9043 216.178 91.7093 216.119 91.3193C216.022 90.5783 216.607 90.1688 216.938 89.4668C217.114 89.0963 217.153 88.7453 216.646 86.0543C216.1 83.1683 215.905 82.7783 215.612 82.7003C215.222 82.6223 214.871 83.1488 214.423 83.5973C213.643 84.3968 212.297 85.2743 209.801 85.6058C209.801 84.7283 209.684 84.0263 209.587 83.5193C209.411 82.7393 209.314 82.7393 208.69 80.9063C208.339 79.8728 208.261 79.4438 208.027 79.4243C207.637 79.3853 207.5 80.3798 206.584 80.7308C206.174 80.8868 206.018 80.7503 205.472 80.8283C204.985 80.8868 204.322 81.1013 203.561 81.7448C203.561 81.7448 202.391 82.5443 200.441 83.5388C198.277 84.6308 197.555 83.4413 195.313 84.4358C193.636 85.1768 192.622 86.5028 192.193 87.1073C191.764 87.7118 190.555 89.4668 190.555 91.8848C190.516 93.2693 190.906 95.1024 191.588 95.1999Z" fill="#353535"/>
<path d="M191.607 95.979C191.276 99.2941 191.822 102.668 193.226 105.69C194.415 108.245 196.307 110.78 199.037 111.794C201.825 112.827 205.023 112.067 207.344 110.312C209.703 108.518 211.185 105.846 212.063 103.058C212.18 102.707 211.614 102.551 211.497 102.902C210.659 105.554 209.255 108.108 207.012 109.824C204.692 111.579 201.435 112.32 198.725 111.033C196.287 109.883 194.649 107.484 193.596 105.086C192.329 102.219 191.88 99.0795 192.192 95.979C192.231 95.6085 191.646 95.6085 191.607 95.979Z" fill="#161616"/>
<path d="M211.263 97.4415C211.536 96.252 212.921 96.291 213.623 97.0515C214.227 97.6755 214.364 98.592 214.383 99.4305C214.422 100.835 213.915 103.428 211.907 102.785C211.556 102.668 211.4 103.233 211.751 103.35C214.598 104.267 215.222 100.308 214.871 98.397C214.656 97.2855 213.935 96.096 212.706 95.94C211.77 95.823 210.912 96.408 210.698 97.3245C210.62 97.6365 211.185 97.7925 211.263 97.4415Z" fill="#161616"/>
<path d="M198.842 96.213C198.393 97.149 197.945 98.0655 197.516 99.0015C197.301 99.489 197.067 99.9765 197.106 100.542C197.204 101.692 198.218 102.453 199.271 102.706C199.641 102.804 199.797 102.238 199.427 102.141C198.159 101.829 197.379 100.815 197.925 99.528C198.354 98.514 198.861 97.5195 199.349 96.5055C199.505 96.174 198.998 95.8815 198.842 96.213Z" fill="#161616"/>
<path d="M195.995 98.7675C195.878 98.631 195.8 98.4555 195.78 98.28C195.761 98.202 195.761 98.1045 195.78 98.0265C195.78 97.968 195.878 97.7925 195.878 97.7535C195.839 97.7535 195.819 97.773 195.78 97.773C195.8 97.8315 195.8 97.89 195.8 97.9485C195.8 98.046 195.8 98.1435 195.8 98.241C195.78 98.4945 195.722 98.7285 195.624 98.9625C195.78 98.9235 195.956 98.8845 196.112 98.826C195.917 98.6505 195.839 98.475 195.858 98.202C195.897 97.8315 195.312 97.8315 195.273 98.202C195.234 98.592 195.39 98.982 195.702 99.2355C195.878 99.3915 196.112 99.3135 196.19 99.099C196.365 98.6505 196.443 98.1435 196.365 97.6755C196.307 97.344 196.034 97.0125 195.683 97.1685C195.351 97.305 195.215 97.773 195.215 98.124C195.215 98.514 195.351 98.8845 195.624 99.177C195.839 99.4695 196.248 99.0405 195.995 98.7675Z" fill="#161616"/>
<path d="M203.444 98.4749C203.385 98.3189 203.346 98.1824 203.346 98.0264C203.346 97.9484 203.366 97.8704 203.385 97.7924C203.385 97.7729 203.405 97.7339 203.405 97.7144C203.444 97.6559 203.424 97.6559 203.327 97.7144C203.327 97.7339 203.366 97.8314 203.366 97.8704C203.366 97.9484 203.366 98.0264 203.346 98.1044C203.307 98.2799 203.229 98.4359 203.132 98.5724C203.288 98.5919 203.444 98.6114 203.6 98.6309C203.366 98.2994 203.385 97.9094 203.639 97.5779C203.483 97.5974 203.327 97.6169 203.171 97.6364C203.366 97.8704 203.229 98.2214 202.995 98.3384C203.132 98.3969 203.288 98.4554 203.424 98.5139C203.366 98.3579 203.327 98.2214 203.307 98.0459C203.307 97.9484 203.327 97.8509 203.327 97.7534C203.327 97.7144 203.346 97.6949 203.346 97.6559C203.288 97.5779 203.268 97.5584 203.307 97.6169C203.366 97.7729 203.405 97.8899 203.385 98.0654C203.385 98.1434 203.346 98.2604 203.346 98.3189C203.346 98.3579 203.327 98.3774 203.327 98.4164C203.463 98.3969 203.483 98.3579 203.405 98.2799C203.19 97.9679 202.683 98.2604 202.898 98.5724C203.112 98.8844 203.58 99.1574 203.834 98.7089C204.029 98.3384 204.029 97.6949 203.834 97.3439C203.619 96.9734 203.112 96.8564 202.859 97.2659C202.625 97.6559 202.683 98.2409 202.839 98.6504C202.917 98.8259 203.093 98.9234 203.268 98.8259C203.873 98.5139 203.99 97.7144 203.561 97.2074C203.424 97.0514 203.21 97.1294 203.093 97.2659C202.742 97.7339 202.722 98.4164 203.054 98.9039C203.151 99.0404 203.385 99.1184 203.522 98.9624C203.873 98.5139 204.243 97.4609 203.541 97.1294C203.229 96.9929 202.956 97.1879 202.859 97.4804C202.722 97.8509 202.722 98.2604 202.878 98.6114C203.034 98.9624 203.6 98.8259 203.444 98.4749Z" fill="#161616"/>
<path d="M197.204 95.199C196.19 94.536 194.864 94.848 194.22 95.8425C194.025 96.1545 194.532 96.447 194.727 96.135C195.195 95.394 196.17 95.2185 196.911 95.6865C197.223 95.901 197.516 95.394 197.204 95.199Z" fill="#161616"/>
<path d="M202.586 95.355C203.483 94.5945 204.867 94.8285 205.277 95.979C205.394 96.33 205.959 96.174 205.842 95.823C205.277 94.2435 203.405 93.873 202.176 94.9455C201.903 95.1795 202.313 95.589 202.586 95.355Z" fill="#161616"/>
<path d="M203.307 112.106C203.619 113.256 204.224 114.29 205.101 115.109C205.374 115.362 205.784 114.953 205.511 114.699C204.711 113.939 204.146 113.022 203.873 111.95C203.756 111.579 203.19 111.735 203.307 112.106Z" fill="#161616"/>
<path d="M208.689 108.498C208.865 109.804 209.313 110.994 210.074 112.086C210.288 112.398 210.795 112.105 210.581 111.793C209.879 110.799 209.43 109.707 209.274 108.498C209.235 108.147 208.65 108.127 208.689 108.498Z" fill="#161616"/>
<path d="M205.14 115.206C207.246 115.928 209.664 114.231 210.444 112.301C210.581 111.95 210.015 111.794 209.879 112.145C209.216 113.783 207.051 115.245 205.296 114.641C204.945 114.524 204.789 115.089 205.14 115.206Z" fill="#161616"/>
<path d="M203.658 112.417C205.062 112.183 206.31 111.52 207.305 110.506C207.558 110.233 207.149 109.824 206.895 110.097C205.959 111.052 204.809 111.637 203.502 111.871C203.132 111.93 203.288 112.476 203.658 112.417Z" fill="#161616"/>
<path d="M203.99 112.807C205.628 112.339 207.48 111.052 208.221 109.492C208.377 109.161 207.87 108.849 207.714 109.2C207.032 110.623 205.335 111.833 203.814 112.262C203.463 112.359 203.619 112.905 203.99 112.807Z" fill="#161616"/>
<path d="M191.705 93.756C190.593 92.4495 191.042 90.1095 191.588 88.6275C192.251 86.814 193.557 85.449 195.449 84.9225C197.106 84.4545 198.881 84.513 200.499 83.889C202.293 83.187 203.6 81.2565 205.667 81.393C206.037 81.4125 206.037 80.8275 205.667 80.808C203.307 80.652 201.864 82.914 199.739 83.5185C197.691 84.123 195.41 83.9085 193.557 85.098C192.095 86.034 191.178 87.6135 190.769 89.271C190.359 90.8505 190.145 92.859 191.276 94.1655C191.529 94.458 191.958 94.0485 191.705 93.756Z" fill="#383838"/>
<path d="M197.945 91.5525C197.789 90.129 198.101 88.725 198.939 87.555C199.875 86.2485 201.299 85.6635 202.703 85.0005C203.873 84.4545 204.945 83.772 205.784 82.7775C206.603 81.8415 207.012 80.457 208.046 79.7355C207.909 79.6965 207.773 79.6575 207.636 79.638C208.611 81.9195 210.561 84.708 208.806 87.126C208.592 87.438 209.099 87.7305 209.313 87.4185C211.205 84.8055 209.196 81.822 208.143 79.3455C208.085 79.209 207.87 79.1505 207.734 79.248C206.603 80.0085 206.213 81.3735 205.335 82.368C204.185 83.7135 202.683 84.318 201.143 85.059C198.608 86.2875 196.989 88.6665 197.321 91.5525C197.399 91.923 198.003 91.923 197.945 91.5525Z" fill="#383838"/>
<path d="M203.463 91.2795C204.711 88.959 206.759 87.1455 209.255 86.268C210.425 85.8585 211.653 85.6245 212.765 85.059C213.837 84.5325 214.754 83.7915 215.553 82.914C215.397 82.8945 215.241 82.875 215.085 82.8555C215.807 84.396 216.489 86.1315 216.626 87.828C216.762 89.661 215.748 91.065 214.637 92.4105C214.403 92.703 214.812 93.1125 215.046 92.82C216.158 91.455 217.25 90.012 217.211 88.179C217.172 86.2485 216.372 84.279 215.573 82.563C215.495 82.3875 215.241 82.368 215.105 82.5045C214.091 83.5965 212.882 84.4545 211.478 84.9615C210.288 85.3905 209.04 85.6245 207.89 86.19C205.764 87.2235 204.029 88.92 202.917 90.987C202.781 91.3185 203.288 91.611 203.463 91.2795Z" fill="#383838"/>
<path d="M215.748 91.3966C217.152 94.1266 216.899 97.3636 215.105 99.8401C214.89 100.152 215.397 100.445 215.612 100.133C217.542 97.4806 217.757 94.0096 216.255 91.1041C216.08 90.7726 215.573 91.0651 215.748 91.3966Z" fill="#383838"/>
<path opacity="0.14" d="M208.494 94.5554C208.553 95.5109 208.592 96.8954 208.494 98.5529C208.299 101.517 208.143 104.071 206.837 106.47C205.199 109.453 202.391 111.013 200.519 111.793C201.416 111.852 202.859 111.813 204.516 111.267C205.881 110.818 206.915 110.175 207.578 109.668C207.948 111.13 208.338 112.593 208.709 114.055C209.294 113.353 209.859 112.632 210.444 111.93C209.937 110.916 209.43 109.882 208.923 108.868C209.333 108.205 209.723 107.503 210.113 106.743C210.815 105.417 211.38 104.149 211.848 102.94C212.102 103.038 212.843 103.291 213.506 102.94C214.247 102.55 214.422 101.673 214.578 100.873C214.734 100.035 215.163 97.7924 213.837 96.8174C213.291 96.4079 212.336 96.1349 211.575 96.5444C211.166 96.7784 210.951 97.1294 210.834 97.3439C210.737 96.5444 210.659 95.7449 210.561 94.9454C209.879 94.8284 209.177 94.6919 208.494 94.5554Z" fill="#666666"/>
<path opacity="0.2" d="M204.029 91.2404C205.121 90.0509 206.427 88.3545 207.558 86.112C208.358 84.513 208.884 83.031 209.216 81.783C210.093 83.3625 210.015 84.63 209.957 85.176C209.625 87.672 207.363 89.232 206.096 90.1095C205.296 90.6555 204.555 91.0064 204.029 91.2404Z" fill="#212121"/>
<path opacity="0.16" d="M208.026 93.4245C209.138 93.0345 210.444 92.469 211.829 91.6305C214.344 90.09 216.041 88.257 217.094 86.9115C217.23 87.7305 217.367 89.349 216.489 90.831C215.085 93.249 211.634 94.419 208.026 93.4245Z" fill="#212121"/>
<path opacity="0.22" d="M195.254 92.3715C195.215 91.5525 195.273 90.3825 195.644 89.037C196.521 85.956 198.705 83.655 199.037 83.85C199.31 84.006 198.647 85.839 195.254 92.3715Z" fill="#212121"/>
<path d="M196.209 104.93C199.115 105.066 201.942 104.481 204.555 103.194C204.809 103.077 204.594 102.687 204.341 102.824C201.806 104.072 199.037 104.637 196.229 104.501C195.917 104.481 195.936 104.91 196.209 104.93Z" fill="#161616"/>
<path d="M196.502 105.008C196.892 105.71 197.165 106.47 197.321 107.25C197.379 107.523 197.789 107.406 197.75 107.133C197.594 106.314 197.301 105.515 196.892 104.774C196.755 104.54 196.365 104.774 196.502 105.008Z" fill="#161616"/>
<path d="M197.36 107.27C198.53 108.401 200.421 107.835 201.669 107.114C203.171 106.275 204.263 104.871 204.633 103.194C204.692 102.921 204.263 102.804 204.204 103.077C203.892 104.462 203.093 105.632 201.923 106.451C200.811 107.211 198.803 108.069 197.672 106.958C197.477 106.763 197.165 107.075 197.36 107.27Z" fill="#161616"/>
<path d="M197.087 105.807C198.413 106.158 199.934 105.768 201.201 105.378C202.43 105.007 203.561 104.403 204.419 103.428C204.614 103.213 204.302 102.901 204.107 103.116C203.288 104.032 202.254 104.598 201.084 104.949C199.895 105.3 198.432 105.709 197.204 105.378C196.931 105.319 196.814 105.748 197.087 105.807Z" fill="#161616"/>
<path d="M197.282 106.021C197.438 106.392 197.594 106.762 197.75 107.133C197.847 107.367 198.237 107.191 198.159 106.957C198.023 106.606 197.925 106.275 197.847 105.904C197.75 106.002 197.672 106.08 197.574 106.177C198.042 106.255 198.51 106.294 198.998 106.294C199.232 106.294 199.31 105.904 199.056 105.865C198.608 105.787 198.257 105.807 197.808 105.943C197.672 105.982 197.594 106.138 197.672 106.275C197.789 106.45 197.925 106.645 198.042 106.821C198.198 107.055 198.549 106.86 198.413 106.606C198.354 106.431 198.296 106.255 198.237 106.099C198.101 106.158 197.964 106.216 197.828 106.275C198.023 106.528 198.101 106.801 198.023 107.094C198.159 107.055 198.296 107.016 198.432 106.977C198.159 106.528 197.925 107.055 197.867 107.191C197.808 107.367 198.042 107.562 198.198 107.445C199.797 106.236 201.669 105.631 203.561 105.046C203.834 104.968 203.717 104.539 203.444 104.617C201.513 105.202 199.602 105.826 197.984 107.055C198.101 107.133 198.198 107.211 198.315 107.308C198.393 107.133 198.627 107.094 198.666 106.821C198.705 106.587 198.608 106.236 198.354 106.158C197.652 105.924 197.906 106.918 198.081 107.191C198.198 107.386 198.471 107.289 198.491 107.074C198.53 106.665 198.452 106.372 198.237 106.041C198.101 105.846 197.769 105.963 197.828 106.216C197.906 106.548 197.906 106.528 198.042 106.84C198.159 106.762 198.296 106.684 198.413 106.626C198.296 106.45 198.159 106.255 198.042 106.08C198.003 106.197 197.964 106.294 197.906 106.411C198.237 106.275 198.569 106.255 198.92 106.333C198.939 106.197 198.959 106.041 198.978 105.904C198.53 105.904 198.14 105.885 197.672 105.807C197.496 105.768 197.36 105.904 197.399 106.08C197.477 106.45 197.574 106.782 197.711 107.133C197.847 107.074 197.984 107.016 198.12 106.957C197.964 106.587 197.808 106.216 197.652 105.846C197.555 105.534 197.165 105.768 197.282 106.021Z" fill="#161616"/>
<path d="M198.53 106.724C199.212 106.314 199.914 106.002 200.675 105.729C200.616 105.593 200.558 105.456 200.499 105.32C199.817 105.632 199.134 105.944 198.471 106.236C198.257 106.334 198.413 106.724 198.647 106.646C200.48 105.924 202.293 105.183 203.951 104.091C203.834 104.013 203.736 103.935 203.619 103.838C203.366 104.52 202.235 104.598 201.65 104.813C201.162 104.988 200.694 105.222 200.207 105.398C199.524 105.632 198.725 105.593 198.198 106.178C198.003 106.392 198.315 106.704 198.51 106.49C198.939 106.002 199.739 106.022 200.324 105.827C200.909 105.632 201.474 105.339 202.079 105.144C202.898 104.891 203.717 104.871 204.048 103.974C204.107 103.799 203.873 103.623 203.717 103.721C202.098 104.774 200.304 105.515 198.51 106.217C198.569 106.353 198.627 106.49 198.686 106.626C199.368 106.314 200.051 106.002 200.714 105.71C200.948 105.612 200.772 105.222 200.538 105.3C199.758 105.573 199.017 105.924 198.296 106.334C198.062 106.49 198.296 106.88 198.53 106.724Z" fill="#161616"/>
<path d="M203.795 104.579C203.795 104.559 203.775 104.54 203.775 104.52C203.775 104.501 203.775 104.52 203.775 104.559C203.756 104.579 203.717 104.618 203.697 104.637H203.717C203.658 104.637 203.6 104.657 203.541 104.657C203.444 104.637 203.444 104.462 203.424 104.579C203.424 104.618 203.424 104.637 203.444 104.676C203.463 104.754 203.502 104.793 203.58 104.852C203.678 104.93 203.834 104.871 203.873 104.774C203.931 104.657 203.892 104.54 203.795 104.481C203.795 104.481 203.775 104.481 203.775 104.462C203.795 104.481 203.834 104.52 203.853 104.54C203.873 104.598 203.873 104.598 203.873 104.559C203.873 104.54 203.873 104.52 203.873 104.52C203.873 104.462 203.853 104.403 203.834 104.364C203.775 104.286 203.697 104.228 203.6 104.228C203.346 104.228 203.307 104.52 203.385 104.696C203.424 104.813 203.522 104.891 203.658 104.852C203.756 104.813 203.853 104.676 203.795 104.579Z" fill="#161616"/>
<path d="M203.834 102.804C204.204 102.96 204.516 103.213 204.731 103.564C204.867 103.798 205.257 103.584 205.101 103.35C204.828 102.901 204.438 102.57 203.951 102.394C203.678 102.277 203.561 102.706 203.834 102.804Z" fill="#161616"/>
<path d="M198.51 107.581C200.051 106.489 201.747 105.729 203.58 105.319C203.853 105.261 203.736 104.832 203.463 104.89C201.572 105.3 199.856 106.08 198.276 107.191C198.062 107.367 198.276 107.757 198.51 107.581Z" fill="#161616"/>
<path d="M198.12 107.231C200.031 107.133 201.806 106.548 203.385 105.476C203.619 105.32 203.405 104.93 203.171 105.105C201.65 106.139 199.953 106.724 198.12 106.802C197.828 106.821 197.828 107.25 198.12 107.231Z" fill="#161616"/>
<path d="M199.895 106.743C200.967 106.509 201.962 106.1 202.898 105.515C203.132 105.358 202.917 104.988 202.683 105.144C201.786 105.71 200.831 106.1 199.797 106.334C199.505 106.373 199.622 106.802 199.895 106.743Z" fill="#161616"/>
<path d="M198.549 107.503C200.109 107.464 201.552 107.016 202.839 106.138C203.073 105.982 202.859 105.592 202.625 105.768C201.396 106.606 200.031 107.035 198.549 107.074C198.276 107.074 198.276 107.523 198.549 107.503Z" fill="#161616"/>
<path d="M198.549 107.464C198.53 107.796 198.842 107.835 199.095 107.796C199.68 107.718 200.246 107.581 200.811 107.445C201.084 107.367 200.967 106.957 200.694 107.016C200.402 107.094 200.109 107.152 199.797 107.211C199.661 107.23 198.998 107.269 198.978 107.445C199.017 107.191 198.569 107.191 198.549 107.464Z" fill="#161616"/>
<path d="M202.274 109.746C202.469 109.2 204.224 109.317 205.745 109.512C205.745 109.219 205.803 108.79 205.979 108.322C206.115 107.952 206.33 107.581 207.11 106.723C207.948 105.807 208.377 105.358 208.923 105.027C209.333 104.773 210.015 104.442 210.971 104.286C211.361 104.422 211.77 104.559 212.16 104.676C212.277 104.305 212.511 103.603 212.96 102.238C213.252 101.322 213.428 100.854 213.818 100.698C214.208 100.561 214.734 100.698 215.007 101.029C215.397 101.517 215.046 102.219 214.832 103.408C214.715 104.091 214.812 103.974 214.773 106.528C214.734 109.141 214.637 109.122 214.656 110.214C214.676 111.228 214.812 112.671 215.28 114.406C215.709 114.211 216.392 113.997 217.211 114.016C219.122 114.036 220.467 115.284 221.462 116.239C223.412 118.092 224.25 120.139 224.816 121.582C225.908 124.371 226.044 126.691 226.064 127.705C226.083 129.285 226.122 130.767 225.323 132.483C225.069 133.029 224.367 134.491 222.768 135.603C222.105 136.071 220.857 136.929 219.239 136.792C218.303 136.714 217.464 136.324 216.567 135.603C213.564 133.165 212.18 128.739 211.751 127.198C210.932 124.39 210.035 120.315 209.879 115.225C209.45 115.206 208.943 115.108 208.397 114.894C206.388 114.055 205.608 112.047 205.452 111.54C205.043 111.559 203.58 111.54 202.664 110.526C202.469 110.292 202.196 109.999 202.274 109.746Z" fill="white"/>
<path d="M204.984 111.111C203.951 111.033 202.761 110.643 202.488 109.512C202.43 109.629 202.352 109.746 202.293 109.863C203.795 109.551 205.296 110 206.798 109.785C207.168 109.727 207.012 109.161 206.642 109.22C205.14 109.434 203.639 108.986 202.137 109.298C201.981 109.337 201.903 109.512 201.942 109.649C202.274 111.053 203.697 111.579 205.004 111.677C205.374 111.716 205.374 111.131 204.984 111.111Z" fill="#161616"/>
<path d="M206.096 109.024C205.862 107.64 207.987 107.718 208.787 107.933C209.157 108.03 209.313 107.465 208.943 107.367C207.636 107.016 205.218 107.27 205.53 109.161C205.589 109.551 206.154 109.395 206.096 109.024Z" fill="#161616"/>
<path d="M206.934 107.679C207.11 106.997 207.48 106.373 208.143 106.061C208.923 105.71 209.703 106.061 210.425 106.373C210.756 106.529 211.068 106.022 210.717 105.866C209.82 105.456 208.865 105.066 207.909 105.515C207.09 105.885 206.583 106.665 206.369 107.523C206.291 107.894 206.856 108.05 206.934 107.679Z" fill="#161616"/>
<path d="M208.981 105.339C208.942 105.3 209.605 104.754 209.703 104.696C209.976 104.559 210.288 104.481 210.6 104.481C211.36 104.481 212.043 104.852 212.647 105.242C212.959 105.437 213.252 104.949 212.94 104.735C211.965 104.111 210.775 103.623 209.625 104.091C209.137 104.286 207.967 105.164 208.552 105.768C208.825 106.022 209.235 105.612 208.981 105.339Z" fill="#161616"/>
<path d="M214.773 110.273C215.007 108.615 215.085 106.977 214.968 105.3C214.91 104.345 215.007 103.604 215.241 102.668C215.358 102.18 215.456 101.673 215.319 101.186C215.105 100.523 214.364 99.9765 213.662 100.328C213.213 100.562 213.096 101.088 212.94 101.537C212.648 102.375 212.375 103.233 212.102 104.072C211.985 104.423 212.55 104.579 212.667 104.228C212.823 103.74 212.979 103.253 213.155 102.785C213.252 102.492 213.408 101.517 213.642 101.342C214.617 101.225 215.007 101.498 214.773 102.2C214.715 102.434 214.656 102.648 214.578 102.882C214.481 103.253 214.383 103.604 214.344 103.974C214.266 104.91 214.442 105.885 214.442 106.841C214.442 107.952 214.364 109.044 214.208 110.136C214.169 110.487 214.734 110.643 214.773 110.273Z" fill="#161616"/>
<path d="M204.672 111.735C205.686 111.813 205.939 112.866 206.407 113.568C206.641 113.939 206.934 114.27 207.285 114.543C207.967 115.089 208.767 115.382 209.644 115.46C210.015 115.499 210.015 114.914 209.644 114.875C208.162 114.738 207.226 113.88 206.544 112.632C206.115 111.852 205.608 111.228 204.672 111.17C204.282 111.131 204.301 111.716 204.672 111.735Z" fill="#161616"/>
<path d="M209.547 115.206C210.152 117.293 210.21 119.438 210.386 121.583C210.542 123.396 210.834 125.209 211.341 126.945C212.336 130.299 214.052 133.399 216.528 135.895C216.801 136.168 217.211 135.739 216.938 135.486C214.383 132.912 212.648 129.675 211.731 126.184C210.756 122.519 211.166 118.677 210.113 115.05C209.996 114.699 209.43 114.855 209.547 115.206Z" fill="#161616"/>
<path d="M214.208 110.039C214.5 113.295 215.456 116.474 217.055 119.321C218.615 122.09 221.013 124.488 221.559 127.725C221.618 128.096 222.183 127.94 222.125 127.569C221.637 124.625 219.629 122.382 218.088 119.925C216.236 116.942 215.124 113.549 214.793 110.058C214.754 109.668 214.169 109.668 214.208 110.039Z" fill="#161616"/>
<path d="M215.553 114.563C218.459 113.627 221.325 115.967 222.846 118.229C224.445 120.608 225.167 123.533 225.498 126.36C225.81 129.129 225.596 132.152 223.743 134.375C222.027 136.442 218.849 137.261 216.684 135.389C216.392 135.135 215.982 135.564 216.275 135.798C218.322 137.573 221.345 137.319 223.353 135.603C225.81 133.517 226.415 130.124 226.161 127.062C225.888 123.728 225.05 120.159 223.022 117.429C221.325 115.167 218.361 113.042 215.417 113.978C215.046 114.114 215.183 114.68 215.553 114.563Z" fill="#161616"/>
<path opacity="0.15" d="M214.286 101.381C213.252 101.771 213.33 104.423 213.408 106.334C213.681 112.008 213.818 114.855 214.929 119.223C216.528 125.444 217.991 127.062 218.79 127.823C219.941 128.915 222.144 130.494 223.08 129.87C224.562 128.876 222.203 122.948 221.618 121.505C219.648 116.591 219.219 114.953 217.757 114.446C216.879 114.153 216.021 114.27 215.417 114.446C214.578 112.652 214.442 111.209 214.461 110.214C214.481 109.376 214.617 109.376 214.676 108.108C214.793 105.807 214.383 105.671 214.598 104.169C214.812 102.707 215.378 101.829 214.968 101.478C214.832 101.283 214.5 101.303 214.286 101.381Z" fill="#666666"/>
<path opacity="0.15" d="M215.963 115.44C217.347 116.786 218.303 118.073 218.946 119.087C220.526 121.524 221.189 123.708 221.423 124.547C221.754 125.736 221.91 126.77 222.008 127.53C221.676 126.516 221.052 124.995 219.96 123.299C219.083 121.934 218.517 121.466 217.776 120.237C217.172 119.223 216.411 117.663 215.963 115.44Z" fill="#666666"/>
</svg>
