<svg width="986" height="749" viewBox="0 0 986 749" fill="none" xmlns="http://www.w3.org/2000/svg">
<path d="M102.835 609.124C212.849 609.124 322.802 609.124 432.817 609.124C542.27 609.124 651.723 609.124 761.113 609.124C822.864 609.124 884.552 609.124 946.303 609.124C947.489 609.124 947.489 607.252 946.303 607.252C836.288 607.252 726.335 607.252 616.321 607.252C506.868 607.252 397.415 607.252 288.024 607.252C226.274 607.252 164.585 607.252 102.835 607.252C101.648 607.252 101.648 609.124 102.835 609.124Z" fill="#E8E8E8"/>
<path d="M335.664 606.503C329.295 603.569 323.863 598.888 320.242 592.834C318.556 590.025 317.12 586.842 316.371 583.658C315.684 580.475 316.933 577.23 320.679 577.729C323.114 578.041 325.05 579.664 326.798 581.162C327.173 580.662 327.547 580.163 327.922 579.664C323.863 577.042 320.679 573.422 318.743 568.991C317.432 565.932 314.373 556.258 319.618 555.321C320.242 555.196 320.429 554.447 320.18 553.948C315.185 543.649 313.998 532.165 312.937 520.93C312.437 515.562 311.938 509.071 316.121 504.951C321.054 499.958 327.859 503.453 331.98 507.697C339.66 515.624 343.656 526.922 347.714 536.971C351.96 547.519 355.644 558.255 358.329 569.24C361.388 581.973 363.012 595.018 362.325 608.063C362.262 609.249 364.136 609.249 364.198 608.063C365.572 581.349 357.517 555.446 347.34 531.104C343.157 521.117 338.411 508.259 328.546 502.517C324.737 500.332 320.117 499.708 316.371 502.33C312.562 505.013 311.126 509.757 310.876 514.189C310.564 520.992 311.75 528.17 312.812 534.849C313.873 541.777 315.622 548.58 318.681 554.884C318.868 554.447 319.056 553.948 319.243 553.511C313.748 554.51 314.872 562.437 315.934 566.244C317.62 572.486 321.678 577.791 327.11 581.287C327.984 581.848 329.046 580.475 328.234 579.789C325.237 577.292 321.428 574.483 317.37 576.293C313.062 578.228 314.248 583.222 315.497 586.779C318.743 596.204 325.861 603.944 334.852 608.063C335.789 608.625 336.788 607.002 335.664 606.503Z" fill="#E8E8E8"/>
<path d="M355.582 552.2C353.584 537.283 354.208 522.677 358.891 508.321C361.139 501.393 363.511 494.527 365.821 487.661C367.694 482.106 371.004 471.808 378.933 476.614C384.615 480.047 385.676 489.159 386.988 495.089C388.611 502.329 389.735 509.632 390.422 517.06C391.733 531.041 391.546 545.21 390.047 559.191C388.299 575.669 384.865 591.96 380.182 607.814C379.87 608.999 381.618 609.436 381.993 608.313C391.046 577.541 395.604 545.022 391.858 513.065C390.984 505.325 389.61 497.648 387.737 490.158C386.301 484.541 384.802 477.488 379.121 474.616C374.438 472.307 369.942 474.554 367.445 478.798C366.009 481.233 365.197 484.041 364.26 486.663C362.887 490.782 361.513 494.839 360.14 498.959C357.392 507.198 354.458 515.312 353.334 523.988C352.148 533.35 352.522 542.838 353.771 552.2C353.833 553.386 355.706 553.386 355.582 552.2Z" fill="#E8E8E8"/>
<path d="M318.057 503.765C336.039 535.785 350.212 570.613 353.459 607.564C353.584 608.75 355.457 608.75 355.332 607.564C352.023 570.301 337.849 535.223 319.68 502.829C319.118 501.768 317.495 502.704 318.057 503.765Z" fill="#E8E8E8"/>
<path d="M375.374 475.74C376.873 486.663 376.311 497.711 375.874 508.696C375.437 519.494 375 530.292 374.562 541.153C373.688 563.123 373.126 585.281 369.068 606.94C368.881 608.126 370.629 608.625 370.879 607.439C374.937 585.593 375.561 563.311 376.436 541.153C376.873 529.918 377.372 518.683 377.809 507.51C378.246 496.774 378.683 485.976 377.185 475.303C377.06 474.055 375.249 474.616 375.374 475.74Z" fill="#E8E8E8"/>
<path d="M357.455 507.26C365.384 517.934 371.066 530.042 374.063 542.963C374.313 544.149 376.124 543.649 375.874 542.463C372.814 529.356 367.133 517.06 359.078 506.262C358.391 505.325 356.768 506.262 357.455 507.26Z" fill="#E8E8E8"/>
<path d="M387.237 494.278C382.18 503.453 378.184 513.127 375.249 523.239C374.937 524.425 376.748 524.924 377.06 523.738C379.932 513.814 383.928 504.264 388.861 495.214C389.423 494.215 387.799 493.216 387.237 494.278Z" fill="#E8E8E8"/>
<path d="M319.43 555.134C332.605 560.502 343.531 570.301 350.462 582.722C351.024 583.783 352.647 582.847 352.085 581.786C344.905 568.928 333.541 558.941 319.93 553.386C318.806 552.824 318.369 554.635 319.43 555.134Z" fill="#E8E8E8"/>
<path d="M337.038 513.003C335.914 523.676 336.413 534.349 338.411 544.898C338.661 546.084 340.472 545.584 340.222 544.398C338.286 534.037 337.849 523.489 338.911 513.003C339.036 511.817 337.162 511.817 337.038 513.003Z" fill="#E8E8E8"/>
<path d="M114.323 606.877C112.887 602.695 111.826 598.326 111.326 593.895C111.139 592.022 111.014 590.15 111.014 588.215C111.014 587.216 110.827 585.781 111.076 584.844C111.076 584.47 111.139 584.095 111.139 583.721C112.325 582.847 113.324 582.972 114.136 584.033C114.698 584.532 115.822 584.22 115.759 583.346C115.572 580.787 115.572 578.228 115.884 575.669C116.071 574.421 116.259 573.172 116.571 571.986C116.696 571.55 118.194 567.305 118.319 567.492C118.756 568.117 119.818 568.117 120.005 567.243C122.69 556.195 127.497 545.896 133.367 536.222C134.865 533.725 136.488 531.228 138.112 528.794C139.922 526.11 142.919 521.866 145.667 526.547C148.476 531.291 149.288 538.219 149.538 543.649C150.162 555.134 147.54 566.556 143.856 577.354C140.297 587.903 135.864 598.451 128.247 606.752C127.435 607.626 128.746 608.937 129.558 608.063C136.176 600.885 140.36 592.085 143.794 583.034C147.415 573.36 150.35 563.311 151.224 553.012C151.661 548.018 151.598 542.963 150.849 537.969C150.225 533.663 149.288 528.17 146.603 524.55C141.046 517.185 134.615 530.604 132.305 534.349C126.061 544.461 121.004 555.196 118.194 566.743C118.756 566.681 119.318 566.619 119.88 566.494C118.319 564.434 116.384 566.494 115.697 568.241C113.761 572.923 113.387 578.353 113.824 583.284C114.386 583.034 114.885 582.847 115.447 582.597C114.261 581.536 112.325 580.163 110.639 580.974C108.891 581.848 109.141 584.22 109.141 585.843C108.953 593.146 110.14 600.324 112.512 607.252C112.887 608.5 114.698 608.001 114.323 606.877Z" fill="#E8E8E8"/>
<path d="M143.169 524.425C141.046 539.155 137.487 553.636 132.43 567.617C127.747 580.725 119.88 593.395 118.132 607.376C118.007 608.562 119.88 608.562 120.005 607.376C120.941 599.949 123.814 593.083 126.811 586.342C129.62 579.976 132.305 573.547 134.615 566.993C139.423 553.324 142.857 539.218 144.917 524.862C145.105 523.738 143.294 523.239 143.169 524.425Z" fill="#E8E8E8"/>
<path d="M125.936 546.708C126.623 556.632 127.622 566.494 128.933 576.356C129.121 577.542 130.869 577.042 130.744 575.856C129.433 566.182 128.434 556.445 127.81 546.708C127.747 545.522 125.874 545.459 125.936 546.708Z" fill="#E8E8E8"/>
<path d="M137.612 557.88C142.607 552.949 146.915 547.394 150.537 541.402C151.161 540.341 149.538 539.405 148.913 540.466C145.355 546.333 141.171 551.701 136.301 556.569C135.427 557.381 136.738 558.692 137.612 557.88Z" fill="#E8E8E8"/>
<path d="M107.392 605.941C103.084 599.762 99.4629 593.146 96.7157 586.093C95.4669 582.909 94.4055 579.601 93.5314 576.293C93.0943 574.546 92.6572 572.798 92.2826 570.988C92.0329 569.927 90.4095 562.998 92.6572 563.435C93.4065 563.56 93.9684 562.998 93.7811 562.312C92.2202 553.698 91.2212 545.022 90.909 536.284C90.7841 532.289 90.7217 528.17 91.5958 524.3C92.0329 522.428 92.6572 520.243 93.906 518.683C96.7781 515.187 99.7751 518.058 101.648 520.68C110.639 533.288 116.384 548.455 119.131 563.623C119.318 564.809 121.129 564.309 120.941 563.123C119.193 553.698 116.321 544.586 112.388 535.91C110.327 531.416 108.017 527.109 105.395 522.989C103.646 520.243 101.398 515.936 97.8396 515.187C90.0349 513.564 89.0359 527.171 88.9734 531.977C88.8486 542.339 90.0973 552.762 91.9704 562.936C92.3451 562.562 92.7197 562.187 93.0943 561.813C85.6018 560.502 91.7831 577.666 92.7197 580.6C95.6542 590.025 100.087 598.95 105.707 607.065C106.456 607.876 108.079 606.94 107.392 605.941Z" fill="#E8E8E8"/>
<path d="M95.0924 517.122C102.085 538.781 108.017 560.814 112.887 583.034C113.137 584.22 114.947 583.721 114.698 582.535C109.828 560.314 103.896 538.281 96.903 516.623C96.5284 515.499 94.7177 515.999 95.0924 517.122Z" fill="#E8E8E8"/>
<path d="M90.5343 546.084C97.9644 549.267 104.021 554.697 107.892 561.75C108.454 562.811 110.077 561.875 109.515 560.814C105.457 553.449 99.2131 547.769 91.4709 544.461C90.347 544.024 89.4104 545.647 90.5343 546.084Z" fill="#E8E8E8"/>
<path d="M107.954 530.167C106.331 536.347 105.332 542.588 104.957 548.955C104.895 550.141 106.768 550.141 106.831 548.955C107.143 542.775 108.142 536.659 109.765 530.667C110.077 529.481 108.267 528.981 107.954 530.167Z" fill="#E8E8E8"/>
<path d="M863.573 608.188C858.641 596.204 857.205 583.159 859.702 570.426C859.39 570.676 859.078 570.863 858.828 571.113C860.264 570.863 861.325 571.487 862.075 573.047C862.387 573.921 864.01 573.921 863.885 572.798C863.323 567.305 863.323 561.75 864.01 556.257C864.385 553.511 864.884 550.827 865.571 548.143C865.883 546.895 866.258 545.647 866.633 544.398C866.882 543.712 867.07 542.963 867.319 542.276C867.756 541.277 868.006 540.216 868.006 539.093C868.506 539.405 869.068 539.717 869.567 540.029C871.69 528.607 877.247 518.308 885.489 510.194C885.052 510.194 884.615 510.194 884.178 510.194C887.05 513.252 887.175 517.621 887.612 521.554C888.049 525.673 888.361 529.793 888.548 533.912C888.985 541.964 888.985 550.078 888.548 558.13C887.736 574.795 885.177 591.273 880.931 607.377C880.619 608.563 882.429 609.062 882.741 607.876C887.175 590.836 889.797 573.36 890.484 555.758C890.858 546.895 890.671 538.032 890.047 529.231C889.61 522.927 890.109 513.877 885.426 508.883C885.052 508.509 884.427 508.509 884.115 508.883C875.624 517.185 869.879 527.858 867.694 539.53C867.507 540.404 868.568 541.153 869.255 540.466C869.38 540.341 869.442 540.279 869.567 540.154C869.817 539.904 869.942 539.592 869.817 539.218C869.317 537.782 868.006 537.345 866.882 538.531C866.071 539.343 865.758 540.778 865.384 541.839C864.635 543.961 864.01 546.084 863.448 548.268C861.45 556.32 860.951 564.621 861.825 572.86C862.449 572.798 863.074 572.673 863.636 572.611C862.761 570.426 861.013 569.115 858.578 569.302C858.204 569.302 857.766 569.552 857.704 569.989C855.206 583.034 856.518 596.454 861.575 608.75C862.262 609.749 864.073 609.312 863.573 608.188Z" fill="#E8E8E8"/>
<path d="M891.42 557.818C893.044 546.708 897.477 536.097 904.47 527.234C906.155 525.111 907.904 523.176 909.839 521.304C911.088 520.118 913.898 516.748 915.833 519.556C916.583 520.617 916.52 522.365 916.52 523.613C916.458 529.668 915.646 535.847 914.709 541.901C911.15 565.308 902.784 587.84 890.234 607.938C889.61 608.937 891.233 609.936 891.857 608.875C903.283 590.462 911.275 570.114 915.396 548.83C916.395 543.712 917.144 538.593 917.644 533.413C918.081 529.231 919.392 523.551 917.831 519.494C914.522 510.756 904.719 523.863 902.347 526.921C895.541 535.785 891.17 546.271 889.61 557.318C889.485 558.504 891.295 559.004 891.42 557.818Z" fill="#E8E8E8"/>
<path d="M890.359 553.137C889.61 563.685 888.174 574.109 886.051 584.47C885.801 585.656 887.612 586.155 887.861 584.969C890.047 574.483 891.483 563.872 892.232 553.137C892.294 551.951 890.421 551.951 890.359 553.137Z" fill="#E8E8E8"/>
<path d="M914.46 517.934C903.845 547.706 893.605 577.542 883.678 607.564C883.303 608.687 885.114 609.187 885.489 608.063C895.354 578.041 905.593 548.206 916.27 518.433C916.645 517.309 914.834 516.81 914.46 517.934Z" fill="#E8E8E8"/>
<path d="M883.865 510.943C878.995 543.4 874.063 575.794 869.193 608.25C869.005 609.436 870.816 609.936 871.003 608.75C875.873 576.293 880.806 543.899 885.676 511.442C885.863 510.256 884.053 509.695 883.865 510.943Z" fill="#E8E8E8"/>
<path d="M867.507 538.718C869.567 551.326 871.628 563.872 873.688 576.48C873.875 577.666 875.686 577.167 875.499 575.981C873.438 563.373 871.378 550.827 869.317 538.219C869.13 537.033 867.319 537.532 867.507 538.718Z" fill="#E8E8E8"/>
<path d="M888.548 529.106C884.365 536.222 880.806 543.649 877.871 551.389C877.434 552.512 879.245 553.012 879.682 551.888C882.554 544.336 886.05 537.033 890.171 530.105C890.796 528.981 889.172 528.045 888.548 529.106Z" fill="#E8E8E8"/>
<path d="M896.415 536.471C896.415 547.207 896.415 558.005 896.415 568.741C896.415 569.927 898.288 569.927 898.288 568.741C898.288 558.005 898.288 547.207 898.288 536.471C898.288 535.286 896.415 535.286 896.415 536.471Z" fill="#E8E8E8"/>
<path d="M311.75 633.092C315.871 630.471 320.804 629.659 325.487 631.095C329.545 632.343 332.917 634.029 337.287 633.841C341.346 633.654 345.279 632.593 349.338 632.343C351.523 632.218 353.708 632.281 355.831 633.03C357.954 633.779 359.453 634.902 361.7 635.027C362.887 635.09 362.887 633.217 361.7 633.155C359.14 633.03 356.955 631.22 354.458 630.721C352.46 630.346 350.399 630.346 348.339 630.533C343.968 630.97 339.66 632.218 335.289 631.969C330.731 631.719 326.86 628.973 322.365 628.536C318.244 628.161 314.248 629.285 310.814 631.47C309.815 632.094 310.751 633.716 311.75 633.092Z" fill="#E8E8E8"/>
<path d="M470.467 627.787C476.71 627.6 482.954 627.35 489.135 627.163C492.195 627.038 495.379 626.726 498.439 626.976C500.998 627.163 502.934 628.598 505.307 629.16C507.242 629.597 509.115 629.285 511.051 628.848C514.36 628.099 517.607 627.412 521.041 627.288C526.972 626.976 532.904 627.662 538.773 628.349C539.959 628.473 539.959 626.601 538.773 626.476C532.904 625.79 526.972 625.103 521.041 625.415C518.231 625.54 515.422 625.914 512.674 626.539C509.365 627.288 506.805 627.849 503.621 626.414C499 624.416 494.13 625.103 489.26 625.29C483.016 625.478 476.773 625.727 470.591 625.914C469.28 625.977 469.28 627.849 470.467 627.787Z" fill="#E8E8E8"/>
<path d="M694.867 690.64C701.173 691.577 707.354 690.391 713.536 689.205C717.344 688.456 721.153 687.707 725.087 687.582C728.958 687.457 732.579 688.331 736.325 689.205C739.572 689.954 742.694 690.266 746.003 689.891C749.312 689.455 752.497 688.581 755.806 688.206C762.986 687.332 769.729 690.828 776.91 690.391C778.096 690.328 778.096 688.456 776.91 688.518C770.229 688.893 763.985 685.772 757.304 686.147C754.12 686.334 751.061 687.145 747.876 687.707C743.631 688.456 739.884 688.144 735.701 687.145C729.457 685.585 723.651 685.46 717.282 686.583C709.977 687.832 702.734 689.891 695.304 688.83C694.18 688.643 693.681 690.453 694.867 690.64Z" fill="#E8E8E8"/>
<path d="M867.944 630.034C880.431 625.852 893.98 629.784 906.842 628.037C910.464 627.537 914.148 626.913 917.831 627.225C920.891 627.475 923.763 628.661 926.76 628.973C929.882 629.223 932.941 628.349 936.001 628.037C939.809 627.662 943.556 627.912 947.302 628.598C948.488 628.848 948.988 627.038 947.801 626.788C944.68 626.227 941.495 625.914 938.311 625.977C934.939 626.102 931.693 627.038 928.321 627.1C925.137 627.163 922.14 625.79 918.955 625.415C915.521 624.978 912.087 625.415 908.653 625.852C901.348 626.851 894.355 626.788 887.05 626.414C880.369 626.102 873.751 626.039 867.382 628.224C866.32 628.598 866.758 630.409 867.944 630.034Z" fill="#E8E8E8"/>
<path d="M351.523 678.282C403.034 678.282 454.607 678.282 506.118 678.282C507.305 678.282 507.305 676.409 506.118 676.409C454.607 676.409 403.034 676.409 351.523 676.409C350.337 676.409 350.337 678.282 351.523 678.282Z" fill="#161616"/>
<path d="M495.317 688.456C521.79 688.456 548.201 688.456 574.675 688.456C575.861 688.456 575.861 686.583 574.675 686.583C548.201 686.583 521.79 686.583 495.317 686.583C494.068 686.583 494.068 688.456 495.317 688.456Z" fill="#161616"/>
<path d="M696.678 658.621C724.462 658.621 752.309 658.621 780.094 658.621C781.28 658.621 781.28 656.748 780.094 656.748C752.309 656.748 724.462 656.748 696.678 656.748C695.491 656.748 695.491 658.621 696.678 658.621Z" fill="#161616"/>
<path d="M811.937 661.367C828.421 661.367 844.967 661.367 861.45 661.367C862.636 661.367 862.636 659.495 861.45 659.495C844.967 659.495 828.421 659.495 811.937 659.495C810.751 659.495 810.751 661.367 811.937 661.367Z" fill="#161616"/>
<path d="M133.179 642.392C162.587 642.392 191.933 642.392 221.341 642.392C222.527 642.392 222.527 640.52 221.341 640.52C191.933 640.52 162.587 640.52 133.179 640.52C131.993 640.52 131.993 642.392 133.179 642.392Z" fill="#161616"/>
<path d="M217.283 635.589C233.579 635.589 249.813 635.589 266.109 635.589C267.295 635.589 267.295 633.716 266.109 633.716C249.813 633.716 233.579 633.716 217.283 633.716C216.096 633.716 216.096 635.589 217.283 635.589Z" fill="#161616"/>
<path d="M497.44 650.819C518.793 650.819 540.084 650.819 561.438 650.819C562.624 650.819 562.624 648.946 561.438 648.946C540.084 648.946 518.793 648.946 497.44 648.946C496.191 648.946 496.191 650.819 497.44 650.819Z" fill="#161616"/>
<path d="M335.664 606.503C329.295 603.569 323.863 598.888 320.242 592.834C318.556 590.025 317.12 586.842 316.371 583.658C315.684 580.475 316.933 577.23 320.679 577.729C323.114 578.041 325.05 579.664 326.798 581.162C327.173 580.662 327.547 580.163 327.922 579.664C323.863 577.042 320.679 573.422 318.743 568.991C317.432 565.932 314.373 556.258 319.618 555.321C320.242 555.196 320.429 554.447 320.18 553.948C315.185 543.649 313.998 532.165 312.937 520.93C312.437 515.562 311.938 509.071 316.121 504.951C321.054 499.958 327.859 503.453 331.98 507.697C339.66 515.624 343.656 526.922 347.714 536.971C351.96 547.519 355.644 558.255 358.329 569.24C361.388 581.973 363.012 595.018 362.325 608.063C362.262 609.249 364.136 609.249 364.198 608.063C365.572 581.349 357.517 555.446 347.34 531.104C343.157 521.117 338.411 508.259 328.546 502.517C324.737 500.332 320.117 499.708 316.371 502.33C312.562 505.013 311.126 509.757 310.876 514.189C310.564 520.992 311.75 528.17 312.812 534.849C313.873 541.777 315.622 548.58 318.681 554.884C318.868 554.447 319.056 553.948 319.243 553.511C313.748 554.51 314.872 562.437 315.934 566.244C317.62 572.486 321.678 577.791 327.11 581.287C327.984 581.848 329.046 580.475 328.234 579.789C325.237 577.292 321.428 574.483 317.37 576.293C313.062 578.228 314.248 583.222 315.497 586.779C318.743 596.204 325.861 603.944 334.852 608.063C335.789 608.625 336.788 607.002 335.664 606.503Z" fill="#E8E8E8"/>
<path d="M772.664 327.313C772.914 322.507 782.03 327.313 784.59 326.876C787.961 326.314 788.711 322.569 792.582 323.381C794.954 323.88 797.202 325.003 799.7 324.754C801.323 324.567 802.509 323.63 804.07 323.193C806.505 322.507 808.94 323.256 810.751 325.003C811.625 325.815 812.936 324.504 812.062 323.693C809.315 321.071 805.881 320.509 802.384 321.82C799.45 322.944 797.702 322.819 794.767 321.945C793.331 321.508 791.832 321.071 790.334 321.258C788.586 321.508 787.899 322.382 786.713 323.443C783.154 326.501 780.594 323.693 776.847 323.131C773.975 322.694 771.041 324.13 770.853 327.313C770.729 328.561 772.602 328.561 772.664 327.313Z" fill="#1E1E1E"/>
<path d="M783.341 317.826C783.84 313.706 791.083 317.201 793.206 317.389C796.078 317.638 796.765 316.016 798.825 314.518C802.634 311.709 805.381 315.267 809.19 315.079C810.251 315.017 810.813 314.393 811.687 313.893C814.122 312.52 816.495 312.208 818.68 314.268C819.554 315.079 820.866 313.769 819.992 312.957C817.432 310.585 814.372 310.398 811.313 311.771C809.939 312.395 810.751 313.082 808.378 313.082C807.192 313.082 805.693 312.146 804.507 311.834C802.821 311.397 801.073 311.147 799.387 311.834C796.64 312.957 796.515 315.703 792.644 315.391C790.708 315.267 789.023 314.081 787.025 313.956C784.34 313.769 781.717 314.892 781.343 317.763C781.28 319.012 783.153 319.012 783.341 317.826Z" fill="#1E1E1E"/>
<path d="M190.934 543.587C193.494 541.714 195.679 540.84 198.676 542.276C199.862 542.838 200.986 543.462 202.297 543.712C205.045 544.148 207.542 542.775 209.977 541.714C212.225 540.716 214.098 540.154 216.471 541.402C217.782 542.089 218.843 543.025 220.342 543.275C223.339 543.836 227.772 540.965 230.145 543.275C231.019 544.086 232.33 542.775 231.456 541.964C229.146 539.717 226.336 540.778 223.464 541.277C221.528 541.589 220.279 541.527 218.531 540.528C217.72 540.029 216.97 539.405 216.034 539.093C214.785 538.656 213.536 538.593 212.225 538.843C210.539 539.218 208.978 540.091 207.355 540.778C204.42 542.026 202.485 541.964 199.488 540.653C195.679 538.905 193.244 539.467 189.81 541.964C189.061 542.65 189.997 544.273 190.934 543.587Z" fill="#1E1E1E"/>
<path d="M208.978 533.912C213.224 529.168 220.467 534.661 225.712 533.538C227.647 533.101 228.896 532.477 230.894 533.163C232.08 533.6 233.079 534.411 234.266 534.848C236.576 535.66 238.761 535.285 240.884 534.287C241.945 533.787 241.009 532.164 239.947 532.664C235.577 534.786 233.641 531.478 229.832 530.854C228.646 530.666 227.71 530.978 226.586 531.353C224.463 531.977 222.839 532.04 220.592 531.54C216.221 530.604 211.101 528.732 207.542 532.664C206.855 533.475 208.167 534.786 208.978 533.912Z" fill="#1E1E1E"/>
<path d="M154.408 477.55C151.286 474.117 154.221 468 159.028 469.311C164.835 470.871 163.337 479.048 157.53 478.986C156.344 478.986 156.344 480.858 157.53 480.858C161.026 480.858 164.211 478.237 164.71 474.741C165.21 471.496 163.024 468.687 160.027 467.626C153.222 465.254 148.476 473.805 153.097 478.861C153.908 479.735 155.22 478.424 154.408 477.55Z" fill="#8E8E8E"/>
<path d="M476.398 458.013C474.088 459.699 472.34 461.946 471.59 464.692C470.716 467.938 472.964 472.494 470.779 474.928C469.405 476.489 467.033 477.55 466.408 479.672C466.158 480.421 466.221 481.108 466.471 481.857C466.783 482.918 467.22 483.105 467.22 484.228C467.22 486.101 465.596 486.912 464.036 487.724C462.974 488.285 463.911 489.908 464.972 489.347C466.97 488.285 469.53 486.538 469.343 483.979C469.218 482.356 467.657 481.357 468.531 479.61C469.093 478.548 470.529 477.737 471.341 476.926C472.902 475.49 473.963 473.992 473.713 471.807C473.401 469.436 472.714 467.625 473.339 465.191C473.963 462.882 475.337 461.009 477.272 459.636C478.271 458.95 477.335 457.327 476.398 458.013Z" fill="#8E8E8E"/>
<path d="M485.576 464.255C480.269 463.756 479.645 470.309 479.895 474.117C480.019 476.239 480.144 478.361 478.833 480.109C478.146 480.983 477.147 481.669 476.71 482.73C476.336 483.667 476.585 484.416 476.773 485.414C477.335 488.473 475.649 490.47 473.588 492.467C472.714 493.341 474.025 494.652 474.9 493.778C476.523 492.155 478.396 490.283 478.833 487.911C479.021 486.787 478.583 485.914 478.583 484.853C478.583 482.918 479.77 482.231 480.644 480.858C482.017 478.861 481.955 476.426 481.768 474.117C481.58 471.433 481.393 465.753 485.576 466.127C486.825 466.252 486.763 464.38 485.576 464.255Z" fill="#8E8E8E"/>
<path d="M491.258 233.438C491.508 229.132 498.751 230.754 501.436 229.319C503.371 228.258 504.495 226.323 505.556 224.513C506.181 223.452 506.743 222.266 507.554 221.329C509.178 219.457 511.051 219.707 513.299 219.519C516.233 219.27 518.606 217.834 520.417 215.525C521.166 214.588 519.855 213.278 519.105 214.214C517.357 216.461 515.172 217.522 512.362 217.709C510.989 217.772 509.677 217.709 508.366 218.333C505.994 219.519 504.87 222.078 503.621 224.263C502.622 225.948 501.685 227.321 499.812 228.008C498.002 228.695 495.941 228.32 494.068 228.757C491.57 229.319 489.635 230.879 489.448 233.501C489.323 234.624 491.196 234.624 491.258 233.438Z" fill="#8E8E8E"/>
<path d="M496.753 241.24C498.626 238.182 502.435 237.433 505.432 235.935C508.116 234.624 509.49 232.939 510.302 230.068C511.488 225.636 514.922 226.198 518.731 225.636C521.041 225.262 522.914 224.513 523.851 222.203C524.288 221.08 522.477 220.58 522.04 221.704C520.854 224.513 516.171 223.826 513.673 224.388C511.113 224.887 509.365 226.073 508.616 228.632C507.929 230.942 507.679 232.377 505.557 233.688C504.245 234.499 502.747 235.061 501.311 235.685C498.813 236.746 496.503 237.932 495.067 240.304C494.505 241.303 496.128 242.239 496.753 241.24Z" fill="#8E8E8E"/>
<path d="M778.159 527.608C776.66 522.989 781.405 518.245 785.901 521.054C790.833 524.113 788.086 531.103 782.592 530.978C781.405 530.916 781.405 532.788 782.592 532.851C789.585 533.101 793.268 524.175 787.399 519.868C781.655 515.624 774.288 521.616 776.348 528.17C776.723 529.293 778.533 528.794 778.159 527.608Z" fill="#8E8E8E"/>
<path d="M484.016 589.213C482.267 585.967 484.14 581.224 488.324 581.848C490.01 582.098 491.633 583.346 491.633 585.218C491.633 587.029 490.197 588.839 488.324 588.901C487.137 588.963 487.137 590.836 488.324 590.774C494.193 590.524 495.254 582.222 489.76 580.288C483.703 578.228 479.707 585.094 482.392 590.149C483.017 591.21 484.64 590.274 484.016 589.213Z" fill="#8E8E8E"/>
<path d="M749.375 222.765C747.564 220.768 750.187 217.959 752.434 219.27C755.244 220.955 753.558 224.388 750.936 225.074C749.75 225.386 750.249 227.197 751.435 226.884C755.993 225.761 757.554 219.332 752.684 217.335C748.563 215.649 745.067 220.83 748.001 224.076C748.876 225.012 750.187 223.701 749.375 222.765Z" fill="#8E8E8E"/>
<path d="M107.33 286.492C103.709 284.62 105.894 278.878 109.952 280.063C114.698 281.437 113.074 287.553 108.891 288.427C107.705 288.677 108.204 290.487 109.391 290.237C115.634 288.864 116.821 279.626 109.952 278.128C104.021 276.818 101.024 285.306 106.331 288.053C107.455 288.677 108.392 287.054 107.33 286.492Z" fill="#1E1E1E"/>
<path d="M355.582 552.2C353.584 537.283 354.208 522.677 358.891 508.321C361.139 501.393 363.511 494.527 365.821 487.661C367.694 482.106 371.004 471.808 378.933 476.614C384.615 480.047 385.676 489.159 386.988 495.089C388.611 502.329 389.735 509.632 390.422 517.06C391.733 531.041 391.546 545.21 390.047 559.191C388.299 575.669 384.865 591.96 380.182 607.814C379.87 608.999 381.618 609.436 381.993 608.313C391.046 577.541 395.604 545.022 391.858 513.065C390.984 505.325 389.61 497.648 387.737 490.158C386.301 484.541 384.802 477.488 379.121 474.616C374.438 472.307 369.942 474.554 367.445 478.798C366.009 481.233 365.197 484.041 364.26 486.663C362.887 490.782 361.513 494.839 360.14 498.959C357.392 507.198 354.458 515.312 353.334 523.988C352.148 533.35 352.522 542.838 353.771 552.2C353.833 553.386 355.706 553.386 355.582 552.2Z" fill="#E8E8E8"/>
<path d="M575.237 646.512C575.487 654.626 575.674 662.74 575.924 670.854C550.137 678.469 537.462 683.463 537.899 685.834C538.461 688.83 559.128 687.832 599.9 682.838C599.025 668.982 598.151 655.063 597.215 641.207C589.91 642.954 582.604 644.702 575.237 646.512Z" fill="#161616" stroke="#161616" stroke-width="2" stroke-miterlimit="10"/>
<path d="M656.843 486.538C653.096 487.661 653.908 488.098 633.678 503.64C612.262 520.056 601.585 528.295 594.155 532.476C589.847 534.911 586.351 536.658 582.042 540.653C574.925 547.332 571.303 554.947 568.493 562.374C559.752 585.531 558.441 607.689 558.191 617.55C557.942 626.663 558.129 639.521 560.314 654.938C567.057 656.561 572.677 656.998 576.673 657.06C583.603 657.185 593.468 657.31 603.708 652.067C606.705 650.506 609.015 648.884 610.451 647.823C608.641 637.149 607.267 623.73 607.954 608.313C608.516 595.892 610.202 584.969 612.2 575.919C615.509 573.422 620.566 569.864 627.122 566.306C634.677 562.249 642.232 559.253 663.086 553.136C688.061 545.834 688.935 546.645 692.619 543.524C702.172 535.535 709.04 519.431 703.671 505.45C696.678 487.037 672.077 482.106 656.843 486.538Z" fill="white"/>
<path d="M647.227 492.842C635.676 500.894 624.188 509.008 612.637 517.06C602.397 524.238 591.408 530.979 582.043 539.405C573.052 547.457 568.057 557.506 564.81 568.99C561.251 581.723 558.941 594.893 557.754 608.063C556.381 623.23 556.693 638.46 558.441 653.565C558.566 654.751 560.439 654.751 560.314 653.565C557.255 627.724 558.753 601.447 564.872 576.231C567.807 564.059 571.678 552.325 580.731 543.275C589.473 534.536 600.462 527.92 610.514 520.867C623.064 512.066 635.614 503.266 648.164 494.465C649.163 493.778 648.226 492.155 647.227 492.842Z" fill="#161616"/>
<path d="M682.629 545.771C668.893 549.704 655.344 554.073 641.982 559.066C636.113 561.251 630.119 563.435 624.375 565.994C619.63 568.117 615.197 570.8 612.45 575.357C611.825 576.418 613.449 577.354 614.073 576.293C617.07 571.237 622.44 568.741 627.622 566.619C633.616 564.184 639.672 561.875 645.791 559.628C658.091 555.134 670.516 551.139 683.066 547.581C684.253 547.269 683.753 545.459 682.629 545.771Z" fill="#161616"/>
<path d="M613.261 565.994C606.768 592.521 605.581 620.11 609.765 647.074C609.952 648.26 611.763 647.76 611.575 646.574C607.454 619.922 608.641 592.646 615.072 566.494C615.322 565.308 613.511 564.808 613.261 565.994Z" fill="#161616"/>
<path d="M559.253 653.502C559.565 656.998 564.997 656.436 567.37 656.686C573.114 657.247 578.858 657.684 584.665 657.372C594.03 656.873 603.209 654.251 610.576 648.259C611.513 647.51 610.202 646.2 609.265 646.949C602.959 652.067 595.154 654.564 587.162 655.313C583.041 655.687 578.921 655.687 574.8 655.437C573.301 655.375 561.251 655.063 561.126 653.502C561.001 652.317 559.128 652.317 559.253 653.502Z" fill="#161616"/>
<path opacity="0.11" d="M682.067 524.737C673.451 520.368 663.586 531.54 639.235 542.651C619.318 551.763 614.385 549.516 606.58 554.26C592.844 562.561 580.669 586.217 589.41 654.938C591.346 654.938 593.593 654.751 596.091 654.252C602.647 652.878 607.33 649.758 610.139 647.573C607.954 633.904 606.643 616.677 608.766 597.015C609.64 588.714 611.014 581.099 612.637 574.233C618.568 570.8 627.809 565.87 639.672 561.251C668.456 549.953 686.313 550.64 689.185 540.528C690.684 534.848 687.187 527.296 682.067 524.737Z" fill="#666666"/>
<path opacity="0.12" d="M675.761 547.893C675.449 546.208 655.219 547.082 633.991 554.197C620.442 558.691 613.074 561.188 606.643 568.241C596.403 579.351 595.841 593.645 595.03 613.493C594.655 622.918 594.905 636.525 598.214 652.816C602.335 651.505 606.393 650.257 610.514 648.946C608.953 637.336 607.954 623.355 608.766 607.564C609.39 595.767 610.826 585.218 612.637 575.981C614.448 574.046 617.195 571.3 621.066 568.616C629.495 562.686 636.925 561.188 645.666 558.816C656.968 555.633 676.073 549.516 675.761 547.893Z" fill="#666666"/>
<path d="M780.469 604.006C794.08 599.575 805.631 597.078 814.06 595.58C826.111 593.458 828.92 593.895 831.168 595.58C835.039 598.451 834.227 602.695 835.663 629.16C836.163 637.836 836.413 640.021 834.664 642.704C828.733 652.129 809.003 651.693 807.504 647.573C806.942 645.95 808.815 642.954 818.181 636.9C817.869 630.97 817.557 625.041 817.182 619.111C806.505 621.67 795.828 624.292 785.214 626.851C783.715 619.298 782.092 611.683 780.469 604.006Z" fill="#161616" stroke="#161616" stroke-width="2" stroke-miterlimit="10"/>
<path d="M671.39 496.525C667.27 506.199 670.204 516.56 671.578 521.429C673.139 527.046 674.637 527.795 677.135 535.348C679.819 543.462 680.631 549.329 681.755 556.382C683.378 566.681 685.251 578.415 688.186 590.15C691.807 604.63 693.805 612.058 699.799 620.11C702.422 623.667 708.603 631.657 719.467 635.901C721.528 636.713 724.275 637.586 731.081 638.46C738.573 639.459 750.186 640.957 765.546 639.084C778.658 637.524 789.585 634.029 797.764 630.721C799.387 624.729 799.325 619.735 799.075 616.552C798.7 612.557 798.076 605.13 792.644 598.826C791.083 597.016 788.773 594.394 784.902 593.021C780.656 591.585 776.847 592.522 770.104 594.332C762.299 596.391 759.427 598.638 754.307 597.577C752.122 597.14 750.499 596.267 749.5 595.642C748.001 593.333 745.941 589.838 744.005 585.344C738.948 573.609 738.573 564.184 737.886 553.823C736.325 530.479 735.514 518.807 731.767 505.887C727.834 492.343 726.71 485.539 720.841 481.42C714.784 477.175 707.916 477.488 703.671 477.675C693.244 478.112 677.135 483.105 671.39 496.525Z" fill="white"/>
<path d="M723.838 485.727C734.078 507.198 734.889 531.291 737.137 554.51C738.76 571.3 740.197 594.332 757.242 603.195C758.303 603.757 759.24 602.134 758.179 601.572C749.437 597.016 745.067 588.028 742.632 578.852C740.009 568.803 739.322 558.255 738.448 547.894C736.575 526.422 734.889 504.514 725.524 484.728C724.962 483.667 723.338 484.603 723.838 485.727Z" fill="#161616"/>
<path d="M673.076 528.482C684.065 553.386 681.318 581.786 691.995 606.752C696.241 616.739 702.609 626.102 711.663 632.281C722.652 639.708 736.95 641.206 749.874 641.019C766.171 640.77 782.217 637.025 797.327 631.095C798.451 630.658 797.951 628.848 796.827 629.285C783.653 634.465 769.792 638.023 755.619 638.897C742.132 639.771 726.773 639.084 714.847 632.094C693.93 619.798 688.373 593.395 685.002 571.362C682.754 556.445 680.756 541.402 674.575 527.483C674.2 526.485 672.577 527.421 673.076 528.482Z" fill="#161616"/>
<path d="M748.313 595.954C759.615 602.57 772.539 589.837 784.465 593.707C791.083 595.892 794.33 603.007 796.14 609.249C798.138 615.99 798.388 623.043 797.015 629.909C796.765 631.095 798.576 631.594 798.825 630.408C800.074 623.917 800.012 617.238 798.513 610.809C797.077 604.942 794.58 598.264 789.647 594.394C785.089 590.774 779.033 590.711 773.538 591.772C766.17 593.208 756.493 598.638 749.25 594.394C748.188 593.77 747.252 595.33 748.313 595.954Z" fill="#161616"/>
<path opacity="0.11" d="M714.597 484.915C704.108 495.214 725.274 517.871 725.649 555.945C725.961 585.718 718.905 598.077 728.396 608.063C742.007 622.357 772.789 614.118 776.161 613.181C781.53 611.683 793.019 609.499 793.955 603.694C794.517 599.887 790.521 595.58 786.463 593.458C774.1 586.904 762.549 601.385 751.685 596.641C743.506 593.021 741.695 581.037 738.261 558.754C735.451 540.466 737.2 536.596 733.89 516.498C731.455 501.705 728.333 483.23 720.841 482.169C717.844 481.669 715.097 484.353 714.597 484.915Z" fill="#666666"/>
<path opacity="0.17" d="M731.58 509.382C730.581 509.445 730.519 521.429 730.394 536.222C730.082 578.228 732.454 587.154 737.886 595.018C740.134 598.264 744.38 604.256 752.122 607.626C769.23 615.179 791.957 605.254 792.02 598.95C792.02 595.767 786.213 593.395 785.276 593.021C779.345 590.649 774.787 592.958 762.736 595.018C757.741 595.892 753.496 596.329 750.499 596.579C748.251 593.77 745.129 589.401 742.632 583.533C737.824 572.486 738.199 563.498 737.886 553.948C737.2 530.354 732.829 509.32 731.58 509.382Z" fill="#666666"/>
<path d="M499.562 405.334C499.687 403.898 502.996 403.149 504.994 402.712C513.174 400.902 520.229 402.275 522.102 403.024C525.599 404.398 529.095 405.771 532.654 407.144C532.842 406.083 533.404 403.836 535.214 402.151C538.461 399.217 543.081 400.34 544.33 400.715C545.953 401.152 548.513 402.151 552.884 406.894C557.38 411.763 558.004 414.259 560.564 417.443C566.495 424.808 575.424 426.743 579.919 427.679C583.853 428.553 591.783 430.238 600.711 426.493C608.578 423.185 613.011 417.38 614.947 414.759C616.82 412.2 617.444 410.702 621.191 402.151C628.808 384.736 631.243 379.368 636.55 374.001C639.422 371.067 642.919 367.634 646.54 368.446C650.973 369.444 652.847 376.372 653.658 379.306C654.532 382.552 655.656 388.731 653.096 399.529C652.222 403.274 649.225 414.322 640.546 426.493C636.925 431.611 631.867 438.539 622.876 444.407C618.943 446.966 612.512 451.085 603.209 452.334C594.967 453.457 588.661 451.772 583.291 450.274C577.36 448.651 567.494 445.031 557.067 436.48C550.387 436.792 545.267 437.229 541.708 437.666C535.651 438.352 533.091 438.914 530.344 437.354C529.408 436.792 528.034 435.793 526.098 435.918C524.288 436.043 523.663 437.041 522.102 437.354C520.354 437.728 517.482 437.416 515.859 435.294C514.547 433.609 514.672 431.486 514.735 430.8C513.673 429.864 511.987 428.116 511.176 425.494C510.614 423.684 510.676 422.186 510.676 420.501C510.739 418.504 510.739 417.505 511.238 416.694C512.674 414.197 516.795 414.322 517.42 414.384C515.422 412.886 513.611 412.075 512.487 411.638C508.616 410.077 506.555 410.577 502.996 408.642C501.56 407.768 499.438 406.582 499.562 405.334Z" fill="white"/>
<path d="M647.102 367.634C641.67 365.574 637.612 370.131 634.74 374.188C630.431 380.242 626.748 386.734 623.626 393.475C617.757 406.332 613.761 421.312 601.71 429.926C600.711 430.613 601.648 432.235 602.647 431.549C612.387 424.496 617.257 413.448 621.69 402.65C624.375 396.159 627.247 389.792 630.744 383.738C632.492 380.804 634.302 377.87 636.3 375.124C638.673 371.816 641.857 367.697 646.54 369.444C647.727 369.881 648.226 368.071 647.102 367.634Z" fill="#161616"/>
<path d="M537.899 408.267C535.214 409.141 534.153 405.833 534.965 404.023C535.589 402.588 537.212 401.839 538.586 401.402C541.208 400.653 544.205 401.152 546.64 402.338C550.699 404.335 553.009 408.392 555.506 412.012C559.877 418.379 565.684 423.497 572.739 426.618C586.788 432.797 603.209 429.489 614.01 418.629C614.885 417.755 613.511 416.444 612.699 417.318C605.332 424.808 594.905 428.803 584.415 427.804C573.676 426.805 563.936 420.564 557.692 411.888C553.071 405.334 547.265 396.533 537.712 399.716C535.027 400.59 532.405 402.962 532.842 406.02C533.216 408.767 535.714 410.951 538.461 410.015C539.522 409.703 539.023 407.893 537.899 408.267Z" fill="#161616"/>
<path d="M531.406 405.708C526.411 403.212 521.166 401.277 515.609 400.715C510.739 400.216 503.933 400.403 499.937 403.711C496.316 406.707 501.061 408.642 503.621 409.703C509.49 412.137 516.108 412.886 521.79 415.82C522.852 416.382 523.788 414.759 522.727 414.197C519.23 412.387 515.484 411.513 511.738 410.452C509.74 409.89 507.804 409.266 505.869 408.517C504.807 408.143 502.684 407.706 501.873 406.832C500.437 405.334 502.247 404.398 503.621 403.898C512.3 400.341 522.539 403.337 530.531 407.331C531.53 407.831 532.467 406.208 531.406 405.708Z" fill="#161616"/>
<path d="M521.353 414.634C518.668 413.011 515.297 412.824 512.612 414.509C510.427 415.82 508.616 418.691 509.615 421.25C510.739 424.184 515.109 424.496 517.669 424.995C521.603 425.682 525.349 425.682 528.97 423.872C530.032 423.31 529.095 421.687 528.034 422.249C523.975 424.308 519.48 423.559 515.172 422.561C513.486 422.186 513.424 422.249 512.362 420.439C510.988 419.315 511.051 418.129 512.425 417.006C512.799 416.694 513.174 416.444 513.548 416.132C515.671 414.821 518.294 415.008 520.417 416.257C521.416 416.881 522.352 415.258 521.353 414.634Z" fill="#161616"/>
<path d="M510.614 422.311C509.365 425.744 510.988 429.302 514.173 430.987C518.294 433.172 522.976 431.549 526.91 429.988C528.034 429.551 527.534 427.741 526.41 428.178C523.788 429.239 520.916 430.363 518.044 430.113C514.298 429.801 510.988 426.743 512.425 422.81C512.799 421.687 510.988 421.188 510.614 422.311Z" fill="#161616"/>
<path d="M513.548 430.176C512.425 433.671 515.234 436.605 518.419 437.541C523.101 438.852 526.848 436.23 530.219 433.297C531.156 432.485 529.782 431.174 528.908 431.986C526.785 433.796 524.6 435.731 521.728 435.981C518.856 436.23 514.11 434.483 515.359 430.675C515.734 429.552 513.923 429.052 513.548 430.176Z" fill="#161616"/>
<path d="M524.413 417.942C526.286 418.566 529.158 420.252 527.659 422.561C527.035 423.56 528.658 424.496 529.283 423.497C530.157 422.124 530.094 420.314 529.158 418.941C528.221 417.443 526.535 416.631 524.85 416.132C523.726 415.758 523.226 417.568 524.413 417.942Z" fill="#161616"/>
<path d="M527.097 424.308C528.409 425.744 527.847 427.991 525.974 428.553C524.85 428.865 525.287 430.675 526.473 430.363C529.782 429.427 530.719 425.432 528.471 422.935C527.597 422.124 526.286 423.435 527.097 424.308Z" fill="#161616"/>
<path d="M527.972 428.927C529.22 429.614 529.408 431.486 528.409 432.423C527.534 433.234 528.846 434.607 529.72 433.733C531.593 431.923 531.218 428.553 528.908 427.304C527.909 426.743 526.91 428.366 527.972 428.927Z" fill="#161616"/>
<path d="M530.157 407.206C531.53 407.831 532.904 408.517 534.278 409.141C535.339 409.641 536.338 408.018 535.214 407.518C533.841 406.894 532.467 406.208 531.093 405.584C530.032 405.084 529.095 406.707 530.157 407.206Z" fill="#161616"/>
<path d="M538.648 410.078C540.022 408.892 541.895 408.392 543.706 408.829C544.892 409.079 545.391 407.269 544.205 407.019C541.708 406.457 539.273 407.082 537.337 408.767C536.401 409.578 537.712 410.889 538.648 410.078Z" fill="#161616"/>
<path d="M539.71 412.325C537.962 417.505 540.022 423.247 544.705 426.056C545.766 426.68 546.703 425.058 545.641 424.433C541.645 422.062 540.022 417.131 541.52 412.824C541.895 411.638 540.084 411.139 539.71 412.325Z" fill="#161616"/>
<path d="M526.535 436.23C530.282 438.914 534.34 439.476 538.773 438.602C544.955 437.478 550.886 436.917 557.192 437.603C558.379 437.728 558.379 435.856 557.192 435.731C552.322 435.169 547.452 435.231 542.582 435.98C537.025 436.854 532.467 438.165 527.472 434.607C526.473 433.921 525.536 435.544 526.535 436.23Z" fill="#161616"/>
<path d="M555.569 436.792C564.497 441.036 572.739 446.716 581.98 450.212C590.471 453.395 599.775 454.019 608.641 451.834C617.757 449.587 625.124 444.22 631.555 437.541C638.236 430.675 644.23 422.935 648.476 414.26C653.471 404.148 655.906 392.913 654.657 381.678C654.532 380.492 652.659 380.492 652.784 381.678C654.158 394.037 650.973 406.333 644.855 417.068C639.173 427.055 631.118 437.042 621.69 443.783C612.2 450.524 599.9 452.771 588.536 450.212C576.923 447.59 567.12 440.162 556.443 435.107C555.444 434.67 554.507 436.293 555.569 436.792Z" fill="#161616"/>
<path opacity="0.16" d="M649.6 374.874C647.165 374.999 647.477 385.36 644.542 395.971C640.234 411.326 627.872 431.486 609.702 437.666C596.84 442.035 583.853 438.415 563.186 432.61C556.63 430.8 545.079 426.992 529.095 425.994C515.921 425.182 512.674 427.055 512.549 428.053C512.487 428.678 513.673 429.115 514.36 431.112C514.922 432.797 514.298 433.359 514.86 434.42C515.859 436.355 518.856 436.605 519.917 436.729C522.539 436.979 524.662 436.043 525.786 435.481C526.973 436.043 528.846 436.792 531.156 437.291C535.651 438.227 538.211 437.354 543.893 436.792C549.762 436.23 553.633 435.856 557.879 437.041C561.938 438.165 563.811 440.037 567.307 442.409C568.369 443.096 578.359 449.774 590.721 451.834C594.592 452.458 603.458 453.832 613.324 450.024C618.943 447.902 622.502 444.968 626.56 441.66C629.12 439.538 640.546 429.801 648.913 411.638C652.597 403.711 655.594 397.032 654.782 388.232C654.095 381.803 651.66 374.75 649.6 374.874Z" fill="#666666"/>
<path opacity="0.17" d="M530.094 430.8C533.091 429.302 536.588 430.55 537.962 431.049C545.766 433.733 546.516 431.861 558.316 433.608C568.056 435.044 568.431 437.853 581.231 441.972C593.531 445.967 603.459 449.15 613.261 446.029C627.185 441.598 633.616 427.554 634.115 427.991C634.615 428.365 628.995 441.972 615.571 448.339C603.396 454.144 590.721 451.21 587.1 450.399C581.231 449.025 576.485 446.778 571.303 444.282C565.247 441.411 560.502 438.415 557.067 436.168C552.697 435.98 549.263 436.355 546.89 436.667C541.083 437.541 538.648 438.851 533.903 438.165C532.654 437.978 527.472 437.229 527.035 434.857C526.785 433.296 528.471 431.611 530.094 430.8Z" fill="#666666"/>
<path d="M640.546 370.006C638.861 372.066 636.675 375.499 635.052 402.775C634.178 417.88 633.304 433.734 634.615 457.015C635.177 466.502 636.238 479.485 638.423 494.839C645.416 498.834 658.154 504.764 675.012 505.762C702.047 507.385 721.777 495.151 728.396 490.657C725.024 483.979 720.404 473.618 717.469 460.385C713.848 444.157 715.596 436.979 713.661 417.068C711.101 390.728 709.852 377.558 701.86 369.569C686.563 354.215 652.971 354.714 640.546 370.006Z" fill="#3A3A3A"/>
<path opacity="0.22" d="M674.575 358.771C679.008 365.387 684.69 375.187 689.185 387.92C691.121 393.475 700.736 422.061 693.743 458.825C690.059 478.361 682.879 494.09 676.011 505.7C680.819 506.012 686.438 505.949 692.619 505.138C709.04 502.891 721.341 496.088 728.646 491.094C726.336 486.85 723.401 480.858 720.903 473.368C720.404 471.745 717.969 464.442 716.346 453.083C715.222 445.343 715.409 442.784 714.66 430.176C714.472 427.242 713.723 415.321 712.1 401.589C709.727 381.491 707.916 377.122 704.919 373.252C700.674 367.759 695.304 364.825 692.931 363.515C685.439 359.645 678.446 358.896 674.575 358.771Z" fill="#666666"/>
<path opacity="0.22" d="M712.162 405.646C711.226 415.757 709.977 426.181 708.478 436.917C705.044 461.134 700.486 483.667 695.304 504.327C699.55 503.765 704.982 502.641 710.913 500.332C718.656 497.336 724.462 493.341 728.396 490.221C720.092 475.615 717.22 463.381 716.158 454.643C715.097 445.842 715.471 437.354 713.411 416.631C712.911 412.012 712.474 408.205 712.162 405.646Z" fill="#666666"/>
<path d="M615.072 295.73C613.823 298.789 613.886 302.409 613.886 309.712C613.886 314.892 613.948 322.132 616.633 330.684C618.693 337.3 620.691 343.916 626.873 349.783C628.621 351.468 636.176 358.646 646.853 358.646C648.913 358.646 650.661 358.397 651.785 358.147C652.285 360.019 653.346 362.641 655.344 365.325C656.405 366.698 657.467 367.759 658.403 368.57C659.902 368.57 663.711 368.321 667.644 365.824C671.39 363.39 673.139 360.207 673.763 358.833C672.639 357.71 669.705 354.402 669.517 349.596C669.455 348.285 669.642 347.162 669.83 346.163C671.89 343.541 674.075 340.108 675.948 335.927C676.885 333.867 677.572 331.932 678.196 330.122C679.133 330.371 681.006 330.684 682.817 329.81C684.752 328.811 685.439 326.876 686.251 324.504C687.437 321.009 688.748 317.077 687.125 313.581C685.564 310.273 683.129 311.022 681.006 307.964C677.759 303.407 680.943 298.789 679.632 293.795C677.634 286.118 666.52 282.81 662.212 281.499C644.542 276.256 620.566 282.123 615.072 295.73Z" fill="white"/>
<path d="M613.448 304.718C615.009 304.968 616.008 302.534 618.443 300.099C620.941 297.665 625.124 295.106 632.617 294.419C638.736 293.795 644.855 293.109 650.973 292.484C652.909 292.609 657.342 293.109 661.775 296.167C665.334 298.664 667.27 301.66 668.206 303.283C670.142 303.345 672.015 303.47 673.95 303.532C674.325 305.842 674.762 308.151 675.137 310.46C675.386 310.211 678.758 307.215 682.255 308.338C685.064 309.212 686.251 312.208 686.75 313.581C688.311 317.389 687.25 320.447 688.186 320.697C689.31 321.071 691.495 316.952 691.745 316.39C692.307 315.329 694.118 311.646 694.617 305.904C694.992 301.223 695.242 298.102 693.431 295.168C692.806 294.17 692.182 293.546 691.995 292.297C691.683 289.925 693.556 288.615 694.617 286.368C695.179 285.182 695.304 284.058 693.681 275.445C691.932 266.207 691.308 264.959 690.371 264.709C689.123 264.459 687.999 266.145 686.563 267.58C684.065 270.139 679.757 272.948 671.765 274.009C671.765 271.2 671.39 268.953 671.078 267.331C670.516 264.834 670.204 264.834 668.206 258.967C667.082 255.659 666.833 254.285 666.083 254.223C664.835 254.098 664.397 257.281 661.463 258.405C660.152 258.904 659.652 258.467 657.904 258.717C656.343 258.904 654.22 259.591 651.785 261.651C651.785 261.651 648.039 264.21 641.795 267.393C634.865 270.888 632.554 267.081 625.374 270.264C620.004 272.636 616.758 276.88 615.384 278.815C614.01 280.75 610.139 286.368 610.139 294.107C610.014 298.539 611.263 304.406 613.448 304.718Z" fill="#353535"/>
<path d="M613.511 307.215C612.449 317.826 614.198 328.624 618.693 338.298C622.502 346.475 628.558 354.589 637.3 357.835C646.228 361.143 656.468 358.709 663.898 353.091C671.453 347.349 676.198 338.798 679.008 329.872C679.382 328.749 677.572 328.249 677.197 329.373C674.512 337.861 670.017 346.038 662.836 351.531C655.406 357.148 644.979 359.52 636.301 355.401C628.496 351.718 623.251 344.041 619.88 336.363C615.821 327.188 614.385 317.139 615.384 307.215C615.509 306.029 613.636 306.029 613.511 307.215Z" fill="#161616"/>
<path d="M676.448 311.896C677.322 308.089 681.755 308.214 684.003 310.648C685.939 312.645 686.376 315.579 686.438 318.263C686.563 322.757 684.939 331.058 678.508 328.998C677.385 328.624 676.885 330.434 678.009 330.808C687.125 333.742 689.123 321.071 687.999 314.955C687.312 311.397 685.002 307.589 681.068 307.09C678.071 306.716 675.324 308.588 674.637 311.522C674.388 312.52 676.198 313.02 676.448 311.896Z" fill="#161616"/>
<path d="M636.675 307.964C635.239 310.96 633.803 313.893 632.429 316.889C631.743 318.45 630.993 320.01 631.118 321.82C631.43 325.503 634.677 327.937 638.049 328.749C639.235 329.061 639.735 327.251 638.548 326.938C634.49 325.94 631.992 322.694 633.741 318.575C635.114 315.329 636.738 312.146 638.299 308.9C638.798 307.839 637.175 306.903 636.675 307.964Z" fill="#161616"/>
<path d="M627.559 316.14C627.185 315.703 626.935 315.142 626.872 314.58C626.81 314.33 626.81 314.018 626.872 313.769C626.872 313.581 627.185 313.019 627.185 312.895C627.06 312.895 626.997 312.957 626.872 312.957C626.935 313.144 626.935 313.332 626.935 313.519C626.935 313.831 626.935 314.143 626.935 314.455C626.872 315.266 626.685 316.015 626.373 316.764C626.872 316.64 627.434 316.515 627.934 316.328C627.31 315.766 627.06 315.204 627.122 314.33C627.247 313.144 625.374 313.144 625.249 314.33C625.124 315.579 625.624 316.827 626.623 317.638C627.185 318.138 627.934 317.888 628.184 317.201C628.746 315.766 628.995 314.143 628.746 312.645C628.558 311.584 627.684 310.523 626.56 311.022C625.499 311.459 625.062 312.957 625.062 314.081C625.062 315.329 625.499 316.515 626.373 317.451C627.06 318.387 628.371 317.014 627.559 316.14Z" fill="#161616"/>
<path d="M651.41 315.204C651.223 314.705 651.098 314.268 651.098 313.769C651.098 313.519 651.161 313.269 651.223 313.02C651.223 312.957 651.286 312.832 651.286 312.77C651.41 312.583 651.348 312.583 651.036 312.77C651.036 312.832 651.161 313.144 651.161 313.269C651.161 313.519 651.161 313.769 651.098 314.018C650.973 314.58 650.724 315.079 650.411 315.516C650.911 315.579 651.41 315.641 651.91 315.704C651.161 314.642 651.223 313.394 652.035 312.333C651.535 312.395 651.036 312.458 650.536 312.52C651.161 313.269 650.724 314.393 649.974 314.767C650.411 314.955 650.911 315.142 651.348 315.329C651.161 314.83 651.036 314.393 650.973 313.831C650.973 313.519 651.036 313.207 651.036 312.895C651.036 312.77 651.098 312.708 651.098 312.583C650.911 312.333 650.848 312.271 650.973 312.458C651.161 312.957 651.286 313.332 651.223 313.893C651.223 314.143 651.098 314.518 651.098 314.705C651.098 314.83 651.036 314.892 651.036 315.017C651.473 314.955 651.535 314.83 651.286 314.58C650.599 313.581 648.975 314.518 649.662 315.516C650.349 316.515 651.848 317.389 652.659 315.953C653.284 314.767 653.284 312.708 652.659 311.584C651.972 310.398 650.349 310.024 649.537 311.334C648.788 312.583 648.975 314.455 649.475 315.766C649.725 316.328 650.287 316.64 650.848 316.328C652.784 315.329 653.159 312.77 651.785 311.147C651.348 310.648 650.661 310.897 650.287 311.334C649.163 312.832 649.1 315.017 650.162 316.577C650.474 317.014 651.223 317.264 651.66 316.765C652.784 315.329 653.97 311.959 651.723 310.897C650.724 310.461 649.85 311.085 649.537 312.021C649.1 313.207 649.1 314.518 649.6 315.641C650.099 316.765 651.91 316.328 651.41 315.204Z" fill="#161616"/>
<path d="M631.43 304.718C628.184 302.596 623.938 303.595 621.877 306.778C621.253 307.777 622.876 308.713 623.501 307.714C624.999 305.342 628.121 304.781 630.494 306.279C631.493 306.965 632.429 305.342 631.43 304.718Z" fill="#161616"/>
<path d="M648.663 305.218C651.535 302.783 655.968 303.532 657.28 307.215C657.654 308.338 659.465 307.839 659.09 306.716C657.28 301.66 651.286 300.474 647.352 303.907C646.478 304.656 647.789 305.967 648.663 305.218Z" fill="#161616"/>
<path d="M650.973 358.833C651.972 362.516 653.908 365.824 656.718 368.446C657.592 369.257 658.903 367.946 658.029 367.135C655.469 364.701 653.658 361.767 652.784 358.334C652.409 357.148 650.599 357.648 650.973 358.833Z" fill="#161616"/>
<path d="M668.206 347.286C668.768 351.468 670.204 355.276 672.639 358.771C673.326 359.77 674.949 358.833 674.263 357.835C672.015 354.652 670.579 351.156 670.079 347.286C669.954 346.163 668.081 346.1 668.206 347.286Z" fill="#161616"/>
<path d="M656.842 368.758C663.586 371.067 671.328 365.637 673.825 359.458C674.263 358.334 672.452 357.835 672.015 358.958C669.892 364.201 662.961 368.882 657.342 366.948C656.218 366.573 655.719 368.383 656.842 368.758Z" fill="#161616"/>
<path d="M652.097 359.832C656.593 359.083 660.589 356.961 663.773 353.715C664.585 352.841 663.273 351.531 662.462 352.404C659.465 355.463 655.781 357.335 651.598 358.084C650.411 358.272 650.911 360.019 652.097 359.832Z" fill="#161616"/>
<path d="M653.159 361.081C658.404 359.583 664.335 355.463 666.708 350.47C667.207 349.409 665.584 348.41 665.084 349.533C662.899 354.09 657.467 357.96 652.597 359.333C651.473 359.645 651.972 361.393 653.159 361.081Z" fill="#161616"/>
<path d="M613.823 300.099C610.264 295.917 611.7 288.427 613.448 283.684C615.571 277.879 619.755 273.51 625.811 271.825C631.118 270.327 636.8 270.514 641.982 268.517C647.727 266.27 651.91 260.09 658.528 260.527C659.715 260.59 659.715 258.717 658.528 258.655C650.973 258.155 646.353 265.396 639.547 267.331C632.991 269.266 625.686 268.579 619.755 272.386C615.072 275.382 612.137 280.438 610.826 285.744C609.515 290.799 608.828 297.228 612.449 301.41C613.261 302.346 614.635 301.036 613.823 300.099Z" fill="#383838"/>
<path d="M633.803 293.046C633.304 288.49 634.303 283.996 636.987 280.251C639.984 276.069 644.542 274.196 649.038 272.074C652.784 270.327 656.218 268.142 658.903 264.959C661.525 261.963 662.837 257.531 666.146 255.222C665.709 255.097 665.272 254.972 664.835 254.91C667.957 262.212 674.2 271.138 668.581 278.878C667.894 279.876 669.517 280.813 670.204 279.814C676.261 271.45 669.83 261.9 666.458 253.973C666.271 253.536 665.584 253.349 665.147 253.661C661.525 256.096 660.277 260.465 657.467 263.648C653.783 267.955 648.975 269.89 644.043 272.261C635.926 276.194 630.744 283.809 631.805 293.046C632.055 294.232 633.99 294.232 633.803 293.046Z" fill="#383838"/>
<path d="M651.473 292.172C655.469 284.745 662.025 278.94 670.017 276.131C673.763 274.82 677.697 274.071 681.256 272.261C684.69 270.576 687.624 268.204 690.184 265.396C689.685 265.333 689.185 265.271 688.686 265.208C690.996 270.139 693.181 275.694 693.618 281.125C694.055 286.992 690.808 291.486 687.25 295.792C686.5 296.729 687.812 298.039 688.561 297.103C692.12 292.734 695.616 288.115 695.491 282.248C695.366 276.069 692.806 269.765 690.247 264.272C689.997 263.71 689.185 263.648 688.748 264.085C685.501 267.58 681.63 270.326 677.135 271.949C673.326 273.322 669.33 274.071 665.646 275.882C658.841 279.19 653.284 284.62 649.725 291.236C649.288 292.297 650.911 293.233 651.473 292.172Z" fill="#383838"/>
<path d="M690.809 292.547C695.304 301.285 694.492 311.646 688.748 319.573C688.061 320.572 689.685 321.508 690.371 320.51C696.553 312.021 697.24 300.911 692.432 291.611C691.87 290.549 690.247 291.486 690.809 292.547Z" fill="#383838"/>
<path opacity="0.14" d="M667.582 302.658C667.769 305.717 667.894 310.148 667.582 315.454C666.957 324.941 666.458 333.118 662.275 340.795C657.03 350.345 648.039 355.338 642.045 357.835C644.917 358.022 649.537 357.897 654.845 356.149C659.215 354.714 662.524 352.654 664.647 351.031C665.834 355.713 667.082 360.394 668.269 365.075C670.142 362.828 671.952 360.519 673.826 358.272C672.202 355.026 670.579 351.718 668.955 348.472C670.267 346.35 671.515 344.103 672.764 341.669C675.012 337.425 676.823 333.367 678.321 329.498C679.133 329.81 681.505 330.621 683.628 329.498C686.001 328.249 686.563 325.441 687.062 322.881C687.562 320.198 688.935 313.02 684.69 309.899C682.941 308.588 679.882 307.714 677.447 309.025C676.136 309.774 675.449 310.897 675.074 311.584C674.762 309.025 674.512 306.466 674.2 303.907C672.015 303.532 669.767 303.095 667.582 302.658Z" fill="#666666"/>
<path opacity="0.2" d="M653.284 292.047C656.78 288.24 660.963 282.81 664.585 275.632C667.145 270.514 668.831 265.77 669.892 261.775C672.702 266.831 672.452 270.888 672.265 272.636C671.203 280.625 663.96 285.619 659.902 288.427C657.342 290.175 654.969 291.298 653.284 292.047Z" fill="#212121"/>
<path opacity="0.16" d="M666.083 299.038C669.642 297.79 673.825 295.98 678.259 293.296C686.313 288.365 691.745 282.498 695.117 278.191C695.554 280.813 695.991 285.993 693.181 290.737C688.686 298.477 677.634 302.222 666.083 299.038Z" fill="#212121"/>
<path opacity="0.22" d="M625.187 295.668C625.062 293.046 625.249 289.301 626.436 284.994C629.245 275.133 636.238 267.767 637.3 268.392C638.174 268.891 636.051 274.758 625.187 295.668Z" fill="#212121"/>
<path d="M628.246 335.864C637.549 336.301 646.603 334.429 654.969 330.309C655.781 329.934 655.094 328.686 654.283 329.123C646.166 333.118 637.3 334.928 628.309 334.491C627.31 334.429 627.372 335.802 628.246 335.864Z" fill="#161616"/>
<path d="M629.183 336.114C630.431 338.361 631.306 340.795 631.805 343.292C631.992 344.165 633.304 343.791 633.179 342.917C632.679 340.296 631.743 337.737 630.431 335.365C629.994 334.616 628.746 335.365 629.183 336.114Z" fill="#161616"/>
<path d="M631.93 343.354C635.676 346.974 641.733 345.164 645.729 342.855C650.536 340.171 654.033 335.677 655.219 330.309C655.406 329.435 654.033 329.061 653.845 329.935C652.846 334.366 650.287 338.111 646.54 340.733C642.981 343.167 636.55 345.913 632.929 342.356C632.305 341.731 631.306 342.73 631.93 343.354Z" fill="#161616"/>
<path d="M631.056 338.673C635.302 339.796 640.172 338.548 644.23 337.3C648.164 336.114 651.785 334.179 654.532 331.058C655.157 330.371 654.158 329.373 653.533 330.059C650.911 332.993 647.602 334.803 643.856 335.927C640.047 337.05 635.364 338.361 631.43 337.3C630.556 337.112 630.182 338.486 631.056 338.673Z" fill="#161616"/>
<path d="M631.68 339.359C632.18 340.545 632.679 341.731 633.179 342.917C633.491 343.666 634.74 343.104 634.49 342.355C634.053 341.232 633.741 340.171 633.491 338.985C633.179 339.297 632.929 339.547 632.617 339.859C634.115 340.108 635.614 340.233 637.175 340.233C637.924 340.233 638.174 338.985 637.362 338.86C635.926 338.61 634.802 338.673 633.366 339.11C632.929 339.235 632.679 339.734 632.929 340.171C633.304 340.733 633.741 341.357 634.115 341.918C634.615 342.667 635.739 342.043 635.302 341.232C635.114 340.67 634.927 340.108 634.74 339.609C634.303 339.796 633.866 339.984 633.429 340.171C634.053 340.982 634.303 341.856 634.053 342.792C634.49 342.667 634.927 342.543 635.364 342.418C634.49 340.982 633.741 342.667 633.553 343.104C633.366 343.666 634.115 344.29 634.615 343.916C639.735 340.046 645.729 338.111 651.785 336.239C652.659 335.989 652.285 334.616 651.411 334.865C645.229 336.738 639.11 338.735 633.928 342.667C634.303 342.917 634.615 343.167 634.989 343.479C635.239 342.917 635.988 342.792 636.113 341.918C636.238 341.169 635.926 340.046 635.114 339.796C632.867 339.047 633.678 342.231 634.24 343.104C634.615 343.729 635.489 343.416 635.551 342.73C635.676 341.419 635.427 340.483 634.74 339.422C634.303 338.798 633.241 339.172 633.429 339.984C633.678 341.045 633.678 340.982 634.115 341.981C634.49 341.731 634.927 341.482 635.302 341.294C634.927 340.733 634.49 340.108 634.115 339.547C633.99 339.921 633.866 340.233 633.678 340.608C634.74 340.171 635.801 340.108 636.925 340.358C636.987 339.921 637.05 339.422 637.112 338.985C635.676 338.985 634.428 338.922 632.929 338.673C632.367 338.548 631.93 338.985 632.055 339.547C632.305 340.733 632.617 341.794 633.054 342.917C633.491 342.73 633.928 342.543 634.365 342.355C633.866 341.169 633.366 339.984 632.867 338.798C632.554 337.799 631.306 338.548 631.68 339.359Z" fill="#161616"/>
<path d="M635.676 341.606C637.862 340.296 640.109 339.297 642.544 338.423C642.357 337.986 642.17 337.549 641.983 337.112C639.797 338.111 637.612 339.11 635.489 340.046C634.802 340.358 635.302 341.606 636.051 341.357C641.92 339.047 647.727 336.675 653.034 333.18C652.659 332.93 652.347 332.681 651.973 332.369C651.161 334.553 647.539 334.803 645.666 335.489C644.105 336.051 642.607 336.8 641.046 337.362C638.861 338.111 636.301 337.986 634.615 339.859C633.991 340.545 634.99 341.544 635.614 340.857C636.988 339.297 639.548 339.359 641.421 338.735C643.294 338.111 645.104 337.175 647.04 336.551C649.662 335.739 652.285 335.677 653.346 332.806C653.534 332.244 652.784 331.682 652.285 331.994C647.102 335.365 641.358 337.736 635.614 339.983C635.801 340.42 635.989 340.857 636.176 341.294C638.361 340.296 640.547 339.297 642.669 338.361C643.419 338.049 642.857 336.8 642.107 337.05C639.61 337.924 637.237 339.047 634.927 340.358C634.178 340.857 634.927 342.106 635.676 341.606Z" fill="#161616"/>
<path d="M652.534 334.74C652.534 334.678 652.472 334.616 652.472 334.553C652.472 334.491 652.472 334.553 652.472 334.678C652.409 334.74 652.285 334.865 652.222 334.928H652.285C652.097 334.928 651.91 334.99 651.723 334.99C651.41 334.928 651.41 334.366 651.348 334.74C651.348 334.865 651.348 334.928 651.41 335.053C651.473 335.302 651.598 335.427 651.848 335.614C652.16 335.864 652.659 335.677 652.784 335.365C652.971 334.99 652.846 334.616 652.534 334.428C652.534 334.428 652.472 334.428 652.472 334.366C652.534 334.428 652.659 334.553 652.722 334.616C652.784 334.803 652.784 334.803 652.784 334.678C652.784 334.616 652.784 334.553 652.784 334.553C652.784 334.366 652.722 334.179 652.659 334.054C652.472 333.804 652.222 333.617 651.91 333.617C651.098 333.617 650.973 334.553 651.223 335.115C651.348 335.489 651.66 335.739 652.097 335.614C652.409 335.489 652.722 335.053 652.534 334.74Z" fill="#161616"/>
<path d="M652.659 329.061C653.846 329.56 654.845 330.371 655.531 331.495C655.968 332.244 657.217 331.557 656.718 330.808C655.844 329.373 654.595 328.312 653.034 327.75C652.16 327.375 651.785 328.749 652.659 329.061Z" fill="#161616"/>
<path d="M635.614 344.353C640.546 340.857 645.978 338.423 651.847 337.112C652.722 336.925 652.347 335.552 651.473 335.739C645.416 337.05 639.922 339.547 634.864 343.104C634.178 343.666 634.864 344.914 635.614 344.353Z" fill="#161616"/>
<path d="M634.365 343.229C640.484 342.917 646.166 341.045 651.223 337.612C651.972 337.112 651.286 335.864 650.536 336.426C645.666 339.734 640.234 341.606 634.365 341.856C633.428 341.918 633.428 343.292 634.365 343.229Z" fill="#161616"/>
<path d="M640.047 341.669C643.481 340.92 646.665 339.609 649.662 337.737C650.412 337.237 649.725 336.051 648.975 336.551C646.103 338.361 643.044 339.609 639.735 340.358C638.798 340.483 639.173 341.856 640.047 341.669Z" fill="#161616"/>
<path d="M635.739 344.103C640.734 343.978 645.354 342.543 649.475 339.734C650.224 339.235 649.537 337.986 648.788 338.548C644.855 341.232 640.484 342.605 635.739 342.73C634.865 342.73 634.865 344.166 635.739 344.103Z" fill="#161616"/>
<path d="M635.739 343.978C635.676 345.039 636.675 345.164 637.487 345.039C639.36 344.79 641.171 344.353 642.981 343.916C643.856 343.666 643.481 342.355 642.607 342.543C641.67 342.792 640.734 342.98 639.735 343.167C639.298 343.229 637.175 343.354 637.112 343.916C637.237 343.104 635.801 343.104 635.739 343.978Z" fill="#161616"/>
<path d="M647.664 351.281C648.288 349.533 653.908 349.908 658.778 350.532C658.778 349.596 658.965 348.223 659.527 346.725C659.964 345.539 660.651 344.353 663.149 341.607C665.833 338.673 667.207 337.237 668.955 336.176C670.266 335.365 672.452 334.304 675.511 333.804C676.76 334.241 678.071 334.678 679.32 335.053C679.694 333.867 680.444 331.62 681.88 327.251C682.816 324.317 683.378 322.819 684.627 322.32C685.876 321.883 687.562 322.32 688.436 323.381C689.684 324.941 688.561 327.188 687.874 330.996C687.499 333.18 687.811 332.806 687.686 340.982C687.562 349.346 687.249 349.284 687.312 352.779C687.374 356.025 687.811 360.644 689.31 366.199C690.683 365.575 692.869 364.888 695.491 364.95C701.61 365.013 705.918 369.007 709.102 372.066C715.346 377.995 718.031 384.549 719.842 389.168C723.338 398.094 723.775 405.521 723.838 408.767C723.9 413.823 724.025 418.566 721.465 424.059C720.653 425.807 718.406 430.488 713.286 434.046C711.163 435.544 707.167 438.29 701.985 437.853C698.988 437.603 696.303 436.355 693.431 434.046C683.815 426.244 679.382 412.075 678.009 407.144C675.386 398.156 672.514 385.111 672.015 368.82C670.641 368.758 669.018 368.446 667.269 367.759C660.838 365.075 658.341 358.646 657.841 357.023C656.53 357.086 651.847 357.023 648.913 353.778C648.288 353.029 647.414 352.093 647.664 351.281Z" fill="white"/>
<path d="M656.343 355.65C653.034 355.4 649.225 354.152 648.351 350.532C648.164 350.906 647.914 351.281 647.727 351.655C652.534 350.657 657.342 352.092 662.15 351.406C663.336 351.219 662.836 349.408 661.65 349.596C656.842 350.282 652.035 348.847 647.227 349.845C646.727 349.97 646.478 350.532 646.603 350.969C647.664 355.463 652.222 357.148 656.405 357.46C657.592 357.585 657.592 355.713 656.343 355.65Z" fill="#161616"/>
<path d="M659.902 348.972C659.153 344.54 665.958 344.79 668.518 345.476C669.705 345.788 670.204 343.978 669.018 343.666C664.834 342.543 657.092 343.354 658.091 349.408C658.278 350.657 660.089 350.157 659.902 348.972Z" fill="#161616"/>
<path d="M662.587 344.665C663.149 342.48 664.335 340.483 666.458 339.484C668.955 338.361 671.453 339.484 673.763 340.483C674.824 340.982 675.823 339.359 674.7 338.86C671.827 337.549 668.768 336.301 665.709 337.737C663.086 338.922 661.463 341.419 660.776 344.165C660.526 345.351 662.337 345.851 662.587 344.665Z" fill="#161616"/>
<path d="M669.143 337.175C669.018 337.05 671.141 335.302 671.453 335.115C672.327 334.678 673.326 334.428 674.325 334.428C676.76 334.428 678.945 335.614 680.881 336.863C681.88 337.487 682.817 335.926 681.818 335.24C678.696 333.242 674.887 331.682 671.203 333.18C669.642 333.804 665.896 336.613 667.769 338.548C668.643 339.359 669.954 338.049 669.143 337.175Z" fill="#161616"/>
<path d="M687.686 352.966C688.436 347.661 688.685 342.418 688.311 337.05C688.124 333.992 688.436 331.62 689.185 328.624C689.56 327.063 689.872 325.441 689.435 323.88C688.748 321.758 686.375 320.01 684.127 321.134C682.691 321.883 682.317 323.568 681.817 325.004C680.881 327.688 680.007 330.434 679.133 333.118C678.758 334.241 680.569 334.741 680.943 333.617C681.443 332.057 681.942 330.496 682.504 328.998C682.816 328.062 683.316 324.941 684.065 324.379C687.187 324.005 688.436 324.879 687.686 327.126C687.499 327.875 687.312 328.561 687.062 329.31C686.75 330.496 686.438 331.62 686.313 332.806C686.063 335.802 686.625 338.923 686.625 341.981C686.625 345.539 686.375 349.034 685.876 352.529C685.751 353.653 687.562 354.152 687.686 352.966Z" fill="#161616"/>
<path d="M655.344 357.648C658.591 357.897 659.402 361.268 660.901 363.515C661.65 364.701 662.587 365.762 663.711 366.636C665.896 368.383 668.456 369.319 671.266 369.569C672.452 369.694 672.452 367.821 671.266 367.697C666.52 367.26 663.523 364.513 661.338 360.519C659.964 358.022 658.341 356.025 655.344 355.838C654.095 355.713 654.158 357.585 655.344 357.648Z" fill="#161616"/>
<path d="M670.953 368.758C672.889 375.436 673.076 382.302 673.638 389.168C674.138 394.973 675.074 400.777 676.698 406.332C679.882 417.068 685.376 426.992 693.306 434.982C694.18 435.856 695.491 434.482 694.617 433.671C686.438 425.432 680.881 415.071 677.946 403.898C674.824 392.164 676.136 379.868 672.764 368.258C672.389 367.135 670.579 367.634 670.953 368.758Z" fill="#161616"/>
<path d="M685.876 352.217C686.812 362.641 689.872 372.815 694.992 381.928C699.987 390.791 707.667 398.468 709.415 408.829C709.602 410.015 711.413 409.516 711.226 408.33C709.665 398.905 703.234 391.727 698.301 383.862C692.369 374.313 688.81 363.452 687.749 352.28C687.624 351.031 685.751 351.031 685.876 352.217Z" fill="#161616"/>
<path d="M690.184 366.698C699.487 363.702 708.665 371.192 713.536 378.432C718.655 386.047 720.966 395.409 722.027 404.46C723.026 413.323 722.339 422.998 716.408 430.113C710.913 436.729 700.736 439.351 693.805 433.359C692.869 432.547 691.558 433.921 692.494 434.67C699.05 440.349 708.728 439.538 715.159 434.045C723.026 427.367 724.962 416.506 724.15 406.707C723.276 396.034 720.591 384.611 714.097 375.873C708.665 368.633 699.175 361.829 689.747 364.825C688.561 365.262 688.998 367.072 690.184 366.698Z" fill="#161616"/>
<path opacity="0.15" d="M686.126 324.504C682.816 325.753 683.066 334.241 683.316 340.358C684.19 358.522 684.627 367.634 688.186 381.616C693.306 401.527 697.989 406.707 700.549 409.141C704.232 412.637 711.288 417.692 714.285 415.695C719.03 412.512 711.475 393.537 709.602 388.918C703.296 373.189 701.922 367.946 697.239 366.324C694.43 365.387 691.682 365.762 689.747 366.324C687.062 360.581 686.625 355.962 686.688 352.779C686.75 350.095 687.187 350.095 687.374 346.038C687.749 338.673 686.438 338.236 687.125 333.43C687.811 328.749 689.622 325.94 688.311 324.817C687.874 324.192 686.812 324.255 686.126 324.504Z" fill="#666666"/>
<path opacity="0.15" d="M691.495 369.507C695.928 373.813 698.988 377.933 701.048 381.179C706.106 388.981 708.229 395.971 708.978 398.655C710.039 402.463 710.539 405.771 710.851 408.205C709.789 404.959 707.791 400.091 704.295 394.661C701.485 390.291 699.675 388.793 697.302 384.861C695.366 381.615 692.931 376.622 691.495 369.507Z" fill="#666666"/>
</svg>
