<svg width="437" height="200" viewBox="0 0 437 200" fill="none" xmlns="http://www.w3.org/2000/svg">
<path d="M0.46 135C57.3386 135 114.185 135 171.064 135C227.652 135 284.24 135 340.795 135C372.721 135 404.614 135 436.54 135C437.153 135 437.153 134 436.54 134C379.661 134 322.815 134 265.936 134C209.348 134 152.76 134 96.2046 134C64.2789 134 32.3856 134 0.46 134C-0.153333 134 -0.153333 135 0.46 135Z" fill="#E8E8E8"/>
<path d="M148.831 132.811C142.477 129.878 137.058 125.196 133.445 119.142C131.763 116.333 130.33 113.15 129.583 109.967C128.897 106.784 130.143 103.538 133.881 104.037C136.31 104.349 138.241 105.972 139.985 107.47C140.359 106.971 140.733 106.471 141.107 105.972C137.058 103.351 133.881 99.7304 131.95 95.2989C130.642 92.2404 127.589 82.5659 132.822 81.6296C133.445 81.5048 133.632 80.7558 133.382 80.2565C128.399 69.9577 127.215 58.473 126.156 47.238C125.658 41.8702 125.16 35.3789 129.333 31.2594C134.254 26.2661 141.044 29.7614 145.156 34.0057C152.818 41.9327 156.804 53.23 160.853 63.2791C165.089 73.8275 168.764 84.5632 171.443 95.5485C174.495 108.282 176.115 121.327 175.43 134.372C175.367 135.558 177.236 135.558 177.298 134.372C178.669 107.657 170.633 81.7545 160.479 57.412C156.306 47.4253 151.572 34.5675 141.73 28.8251C137.93 26.6405 133.32 26.0164 129.583 28.6379C125.783 31.3218 124.35 36.0655 124.101 40.497C123.789 47.3005 124.973 54.4784 126.032 61.157C127.091 68.0852 128.835 74.8886 131.887 81.1927C132.074 80.7558 132.261 80.2565 132.448 79.8195C126.966 80.8182 128.088 88.7451 129.147 92.5526C130.828 98.7942 134.877 104.1 140.297 107.595C141.169 108.157 142.228 106.784 141.418 106.097C138.428 103.6 134.628 100.792 130.579 102.602C126.281 104.537 127.465 109.53 128.71 113.088C131.95 122.513 139.051 130.252 148.021 134.372C148.955 134.933 149.952 133.311 148.831 132.811Z" fill="#E8E8E8"/>
<path d="M168.702 78.5087C166.709 63.5911 167.332 48.9856 172.003 34.6298C174.246 27.7015 176.613 20.8357 178.918 13.9698C180.787 8.41474 184.088 -1.88402 191.999 2.92206C197.668 6.35498 198.727 15.4678 200.035 21.3974C201.655 28.6378 202.776 35.9405 203.461 43.3681C204.769 57.3494 204.582 71.518 203.087 85.4994C201.343 101.977 197.917 118.268 193.245 134.122C192.934 135.308 194.678 135.745 195.052 134.621C204.084 103.85 208.631 71.3308 204.894 39.3734C204.022 31.6337 202.651 23.9565 200.782 16.4665C199.35 10.849 197.855 3.79593 192.186 0.92476C187.514 -1.38466 183.029 0.862313 180.538 5.10665C179.105 7.5409 178.295 10.3497 177.361 12.9712C175.99 17.0907 174.62 21.1478 173.249 25.2673C170.508 33.5063 167.581 41.6204 166.46 50.2963C165.276 59.6588 165.65 69.1462 166.896 78.5087C166.958 79.6946 168.827 79.6946 168.702 78.5087Z" fill="#E8E8E8"/>
<path d="M131.264 30.0734C149.205 62.0932 163.345 96.9217 166.584 133.872C166.709 135.058 168.577 135.058 168.453 133.872C165.151 96.6096 151.011 61.5314 132.884 29.1372C132.323 28.0761 130.704 29.0123 131.264 30.0734Z" fill="#E8E8E8"/>
<path d="M188.449 2.04832C189.944 12.9712 189.383 24.019 188.947 35.0043C188.511 45.8024 188.075 56.6005 187.639 67.461C186.767 89.4317 186.206 111.59 182.157 133.248C181.97 134.434 183.714 134.933 183.964 133.748C188.013 111.902 188.636 89.6189 189.508 67.461C189.944 56.226 190.442 44.991 190.878 33.8184C191.314 23.0827 191.75 12.2846 190.255 1.61139C190.131 0.363061 188.324 0.924819 188.449 2.04832Z" fill="#E8E8E8"/>
<path d="M170.571 33.5688C178.482 44.242 184.15 56.3508 187.141 69.271C187.39 70.457 189.196 69.9576 188.947 68.7717C185.895 55.6642 180.226 43.3681 172.19 32.5701C171.505 31.6338 169.886 32.5701 170.571 33.5688Z" fill="#E8E8E8"/>
<path d="M200.284 20.5859C195.238 29.7611 191.252 39.4357 188.324 49.5472C188.013 50.7331 189.819 51.2324 190.131 50.0465C192.996 40.1223 196.983 30.5725 201.904 21.5221C202.464 20.5234 200.845 19.5248 200.284 20.5859Z" fill="#E8E8E8"/>
<path d="M132.635 81.4423C145.778 86.8101 156.68 96.6095 163.594 109.03C164.155 110.091 165.774 109.155 165.214 108.094C158.05 95.2363 146.713 85.2497 133.133 79.6946C132.012 79.1328 131.576 80.9429 132.635 81.4423Z" fill="#E8E8E8"/>
<path d="M150.201 39.3111C149.08 49.9843 149.578 60.6576 151.572 71.206C151.821 72.3919 153.627 71.8926 153.378 70.7067C151.447 60.3455 151.011 49.7971 152.07 39.3111C152.195 38.1252 150.326 38.1252 150.201 39.3111Z" fill="#E8E8E8"/>
<path d="M204.24 133.5C202.807 129.318 201.748 124.949 201.25 120.517C201.063 118.645 200.938 116.772 200.938 114.837C200.938 113.839 200.751 112.403 201 111.467C201 111.092 201.063 110.718 201.063 110.343C202.246 109.469 203.243 109.594 204.053 110.655C204.613 111.155 205.735 110.843 205.672 109.969C205.485 107.41 205.485 104.851 205.797 102.292C205.984 101.043 206.171 99.7949 206.482 98.609C206.607 98.1721 208.102 93.9277 208.226 94.115C208.662 94.7392 209.721 94.7392 209.908 93.8653C212.587 82.8176 217.383 72.5188 223.239 62.8442C224.734 60.3476 226.353 57.8509 227.973 55.4167C229.779 52.7328 232.769 48.4884 235.51 53.1696C238.313 57.9133 239.123 64.8416 239.372 70.2718C239.995 81.7565 237.379 93.1787 233.704 103.977C230.153 114.525 225.73 125.074 218.131 133.375C217.321 134.249 218.629 135.56 219.439 134.686C226.042 127.508 230.215 118.707 233.642 109.657C237.254 99.9821 240.182 89.9331 241.054 79.6343C241.49 74.641 241.428 69.5853 240.681 64.5919C240.058 60.2852 239.123 54.7925 236.445 51.1723C230.901 43.8072 224.485 57.2267 222.18 60.9717C215.951 71.0832 210.905 81.8189 208.102 93.366C208.662 93.3036 209.223 93.2411 209.784 93.1163C208.226 91.0566 206.295 93.1163 205.61 94.864C203.679 99.5453 203.305 104.975 203.741 109.906C204.302 109.657 204.8 109.47 205.361 109.22C204.177 108.159 202.246 106.786 200.564 107.597C198.82 108.471 199.069 110.843 199.069 112.465C198.882 119.768 200.066 126.946 202.433 133.874C202.807 135.123 204.613 134.623 204.24 133.5Z" fill="#E8E8E8"/>
<path d="M233.019 51.0476C230.901 65.7779 227.35 80.2586 222.304 94.2399C217.632 107.347 209.784 120.018 208.039 133.999C207.915 135.185 209.784 135.185 209.908 133.999C210.843 126.572 213.708 119.706 216.698 112.965C219.501 106.598 222.18 100.17 224.485 93.6158C229.281 79.9465 232.707 65.8404 234.763 51.4845C234.95 50.361 233.143 49.8617 233.019 51.0476Z" fill="#E8E8E8"/>
<path d="M215.826 73.3302C216.511 83.2545 217.508 93.1163 218.816 102.978C219.003 104.164 220.747 103.665 220.622 102.479C219.314 92.8042 218.318 83.0672 217.695 73.3302C217.632 72.1443 215.764 72.0819 215.826 73.3302Z" fill="#E8E8E8"/>
<path d="M227.475 84.5027C232.458 79.5718 236.756 74.0168 240.369 68.0248C240.992 66.9638 239.372 66.0275 238.749 67.0886C235.199 72.9557 231.025 78.3235 226.166 83.192C225.294 84.0034 226.602 85.3141 227.475 84.5027Z" fill="#E8E8E8"/>
<path d="M209.317 159.401C213.429 156.779 218.35 155.968 223.022 157.403C227.071 158.652 230.434 160.337 234.795 160.15C238.844 159.962 242.768 158.901 246.817 158.652C248.998 158.527 251.178 158.589 253.296 159.338C255.414 160.087 256.909 161.211 259.151 161.336C260.335 161.398 260.335 159.526 259.151 159.463C256.597 159.338 254.417 157.528 251.925 157.029C249.932 156.654 247.876 156.654 245.821 156.842C241.46 157.279 237.162 158.527 232.802 158.277C228.254 158.028 224.392 155.281 219.907 154.844C215.796 154.47 211.809 155.593 208.383 157.778C207.386 158.402 208.321 160.025 209.317 159.401Z" fill="#E8E8E8"/>
<path d="M367.664 154.095C373.893 153.908 380.123 153.658 386.289 153.471C389.342 153.346 392.519 153.034 395.571 153.284C398.125 153.471 400.056 154.907 402.423 155.468C404.354 155.905 406.223 155.593 408.154 155.156C411.455 154.407 414.695 153.721 418.121 153.596C424.039 153.284 429.956 153.97 435.812 154.657C436.995 154.782 436.995 152.909 435.812 152.785C429.956 152.098 424.039 151.411 418.121 151.723C415.318 151.848 412.514 152.223 409.774 152.847C406.472 153.596 403.918 154.158 400.741 152.722C396.132 150.725 391.273 151.411 386.414 151.599C380.185 151.786 373.956 152.036 367.789 152.223C366.481 152.285 366.481 154.158 367.664 154.095Z" fill="#E8E8E8"/>
<path d="M147.938 199.873C199.329 199.873 250.782 199.873 302.173 199.873C303.357 199.873 303.357 198 302.173 198C250.782 198 199.329 198 147.938 198C146.754 198 146.754 199.873 147.938 199.873Z" fill="#161616"/>
<path d="M31.1617 168.701C60.5013 168.701 89.7786 168.701 119.118 168.701C120.302 168.701 120.302 166.828 119.118 166.828C89.7786 166.828 60.5013 166.828 31.1617 166.828C29.9781 166.828 29.9781 168.701 31.1617 168.701Z" fill="#161616"/>
<path d="M115.069 161.897C131.328 161.897 147.524 161.897 163.782 161.897C164.965 161.897 164.965 160.025 163.782 160.025C147.524 160.025 131.328 160.025 115.069 160.025C113.886 160.025 113.886 161.897 115.069 161.897Z" fill="#161616"/>
</svg>
