<svg width="1440" height="524" viewBox="0 0 1440 524" fill="none" xmlns="http://www.w3.org/2000/svg">
<path fill-rule="evenodd" clip-rule="evenodd" d="M-8 52.4L52.3333 104.8C112.667 157.2 233.333 262 354 262C474.667 262 595.333 157.2 716 131C836.667 104.8 957.333 157.2 1078 148.467C1198.67 139.733 1319.33 69.8667 1379.67 34.9333L1440 0V524H1379.67C1319.33 524 1198.67 524 1078 524C957.333 524 836.667 524 716 524C595.333 524 474.667 524 354 524C233.333 524 112.667 524 52.3333 524H-8V52.4Z" fill="white"/>
</svg>
