<svg width="100%" height="383" viewBox="0 0 1440 383" fill="none" xmlns="http://www.w3.org/2000/svg">
<path fill-rule="evenodd" clip-rule="evenodd" d="M0 339.832L26.4 318.248C52.8 296.664 106.8 253.496 159.6 217.523C213.6 181.55 266.4 152.771 320.4 159.966C373.2 167.161 427.2 210.329 480 195.939C532.8 181.55 586.8 109.604 639.6 59.241C693.6 8.87853 746.4 -19.9 800.4 16.0732C853.2 52.0464 907.2 152.771 960 181.55C1012.8 210.329 1066.8 167.161 1119.6 131.187C1173.6 95.2142 1226.4 66.4357 1280.4 59.241C1333.2 52.0464 1387.2 66.4357 1413.6 73.6303L1440 80.825V383H1413.6C1387.2 383 1333.2 383 1280.4 383C1226.4 383 1173.6 383 1119.6 383C1066.8 383 1012.8 383 960 383C907.2 383 853.2 383 800.4 383C746.4 383 693.6 383 639.6 383C586.8 383 532.8 383 480 383C427.2 383 373.2 383 320.4 383C266.4 383 213.6 383 159.6 383C106.8 383 52.8 383 26.4 383H0V339.832Z" fill="#0C4B8E"/>
</svg>
